<?xml version='1.0' encoding='utf-8'?>
<svg xmlns="http://www.w3.org/2000/svg" version="1.1" width="1080px" height="1920px" viewBox="0 0 1080 1920"> <g id="layer1"> <g style="fill:rgb(0,0,0); fill-opacity:1.0; stroke-linejoin: miter"> <path d="M191.99997,980.68024L191.99997,980.68024L895.9999,980.6801C902.2516,980.6801,907.3197,985.7482,907.3197,991.99994C907.3197,998.2515,902.2516,1003.31964,895.9999,1003.31964L895.9999,1003.31964L191.99997,1003.31976C185.74826,1003.31976,180.68024,998.25165,180.68024,991.99994C180.68024,985.7482,185.74826,980.68024,191.99997,980.68024 Z"/> </g> </g> <g id="layer2"> <g style="fill:rgb(0,0,0); fill-opacity:1.0; stroke-linejoin: miter"> <path d="M191.99997,1044.6802L191.99997,1044.6802L896.0,1044.6802C899.15784,1044.6802,902.1721,1045.9991,904.3148,1048.3187C906.45764,1050.6384,907.53406,1053.7476,907.2842,1056.8955L907.28467,1056.8909L907.2678,1057.1035L907.26746,1057.1082C900.2002,1146.1548,892.9375,1242.9714,772.1472,1290.5326L772.1472,1290.5326C713.39453,1313.6664,628.24133,1324.9196,544.0005,1324.9197L544.0005,1324.9197C459.7582,1324.9197,374.60675,1313.667,315.85278,1290.5327L315.85278,1290.5327C194.9671,1242.9341,187.78754,1146.0009,180.7157,1056.8955C180.46588,1053.7476,181.54236,1050.6382,183.68512,1048.3187C185.82788,1045.9993,188.84216,1044.6802,191.99997,1044.6802L191.99997,1044.6802 M191.99997,1067.3197L203.28424,1055.1044C210.43463,1145.1996,217.47736,1227.4662,324.14725,1269.4673L324.14725,1269.4673C379.17197,1291.1333,461.13028,1302.2802,544.00037,1302.2802L544.00037,1302.2802C626.8689,1302.28,708.82935,1291.1327,763.8528,1269.4673L763.8528,1269.4673C870.438,1227.4995,877.5552,1145.328,884.699,1055.3171L884.6986,1055.3219L884.71533,1055.1093L896.0,1067.3197L191.99997,1067.3197 Z"/> </g> </g> <g id="layer3"> <g style="fill:rgb(0,0,0); fill-opacity:1.0; stroke-linejoin: miter"> <path d="M298.8777,1315.1326L298.8777,1315.1326L297.72043,1319.151L297.94196,1318.2422L297.12042,1322.3425L297.26614,1321.4186L296.786,1325.5728L296.85492,1324.6395L296.71948,1328.8191L296.71115,1327.8837L296.9213,1332.0602L296.8357,1331.1284L297.39005,1335.2732L297.22784,1334.3518L298.1226,1338.4369L297.88477,1337.532L299.1138,1341.5289L298.8022,1340.6471L300.35706,1344.5292L299.9735,1343.6755L301.8437,1347.4159L301.3911,1346.5972L303.56372,1350.1702L303.04492,1349.3915L305.50522,1352.7728L304.92416,1352.0399L307.65527,1355.2068L307.0154,1354.524L309.9987,1357.4545L309.3048,1356.827L312.5199,1359.5011L311.7763,1358.933L315.2013,1361.3323L314.41354,1360.8276L318.02493,1362.936L317.19827,1362.4982L320.97144,1364.3011L320.11118,1363.933L324.02032,1365.4181L323.13303,1365.1222L327.1515,1366.2797L326.24222,1366.058L330.34253,1366.8794L329.4186,1366.7338L333.57275,1367.214L332.6395,1367.145L336.8191,1367.2804L335.8836,1367.289L340.06012,1367.0787L339.1284,1367.1642L343.2733,1366.6099L342.352,1366.7721L346.4369,1365.8773L345.53214,1366.1152L349.52924,1364.8862L348.64688,1365.1979L352.52887,1363.643L351.67563,1364.0262L355.41595,1362.1561L354.59714,1362.6089L358.1702,1360.4363L357.3915,1360.955L360.77298,1358.4946L360.03986,1359.0758L363.2066,1356.3447L362.5242,1356.9844L365.45462,1354.0011L364.82687,1354.6954L367.50092,1351.4802L366.93298,1352.2235L369.3324,1348.7985L368.82773,1349.5863L370.93613,1345.975L370.49823,1346.8016L372.3012,1343.0286L371.933,1343.8887L373.4182,1339.9796C375.6386,1334.1354,382.17618,1331.1978,388.02032,1333.4182C393.86447,1335.6387,396.80215,1342.176,394.58176,1348.0203L394.58176,1348.0203L393.09656,1351.9294C392.98575,1352.2211,392.86288,1352.5082,392.72836,1352.7896L392.72836,1352.7896L390.92538,1356.5627C390.79086,1356.8442,390.6448,1357.12,390.4875,1357.3895L390.4875,1357.3895L388.37915,1361.0009C388.22186,1361.2703,388.05344,1361.5331,387.87448,1361.7886L387.87448,1361.7886L385.47507,1365.2135C385.29608,1365.469,385.1066,1365.7169,384.90714,1365.9568L384.90714,1365.9568L382.2331,1369.172C382.0335,1369.412,381.8241,1369.6437,381.60535,1369.8662L381.60535,1369.8662L378.67493,1372.8494C378.45636,1373.0719,378.2287,1373.2854,377.99252,1373.489L377.99252,1373.489L374.82578,1376.2202C374.5895,1376.424,374.34494,1376.6179,374.09265,1376.8014L374.09265,1376.8014L370.71115,1379.2617C370.45883,1379.4452,370.19907,1379.6183,369.93246,1379.7804L369.93246,1379.7804L366.3594,1381.953C366.0928,1382.1151,365.81964,1382.2661,365.5406,1382.4056L365.5406,1382.4056L361.80026,1384.2759C361.52124,1384.4154,361.2366,1384.5432,360.94705,1384.6592L360.94705,1384.6592L357.06506,1386.2141C356.77536,1386.3302,356.48102,1386.4341,356.1827,1386.5259L356.1827,1386.5259L352.1856,1387.7548C351.8874,1387.8466,351.58557,1387.9259,351.28082,1387.9927L351.28082,1387.9927L347.1959,1388.8873C346.89117,1388.9541,346.5838,1389.0083,346.27457,1389.0496L346.27457,1389.0496L342.12967,1389.6039C341.82043,1389.6453,341.50958,1389.6738,341.19797,1389.6895L341.19797,1389.6895L337.02145,1389.8997C336.7099,1389.9153,336.39777,1389.9182,336.08597,1389.9081L336.08597,1389.9081L331.90637,1389.7727C331.59448,1389.7626,331.28317,1389.7395,330.97314,1389.7037L330.97314,1389.7037L326.81903,1389.2235C326.5092,1389.1877,326.20096,1389.1392,325.8951,1389.0779L325.8951,1389.0779L321.7948,1388.2565C321.48877,1388.1952,321.1855,1388.1212,320.88556,1388.0349L320.88556,1388.0349L316.8671,1386.8774C316.56738,1386.7911,316.27136,1386.6925,315.9798,1386.5817L315.9798,1386.5817L312.07068,1385.0964C311.77896,1384.9856,311.49197,1384.8629,311.21042,1384.7284L311.21042,1384.7284L307.43726,1382.9254C307.1558,1382.7909,306.88,1382.6448,306.6106,1382.4874L306.6106,1382.4874L302.9992,1380.3792C302.7298,1380.2219,302.467,1380.0535,302.2115,1379.8745L302.2115,1379.8745L298.78653,1377.4751C298.53098,1377.296,298.28287,1377.1064,298.04294,1376.907L298.04294,1376.907L294.82788,1374.2329C294.588,1374.0333,294.35657,1373.8241,294.134,1373.6055L294.134,1373.6055L291.15073,1370.6752C290.9281,1370.4565,290.7146,1370.2286,290.51083,1369.9923L290.51083,1369.9923L287.77972,1366.8256C287.57605,1366.5894,287.38217,1366.3448,287.19867,1366.0927L287.19867,1366.0927L284.73837,1362.7112C284.55478,1362.4589,284.38168,1362.1991,284.21957,1361.9324L284.21957,1361.9324L282.04694,1358.3594C281.88486,1358.0928,281.7339,1357.8196,281.59436,1357.5406L281.59436,1357.5406L279.72418,1353.8004C279.58463,1353.5212,279.45667,1353.2365,279.34064,1352.9468L279.34064,1352.9468L277.78574,1349.0648C277.66977,1348.7751,277.56583,1348.4811,277.47415,1348.1829L277.47415,1348.1829L276.24515,1344.1859C276.1534,1343.8877,276.0741,1343.5858,276.00732,1343.281L276.00732,1343.281L275.11258,1339.1959C275.04584,1338.8911,274.9917,1338.5837,274.95035,1338.2745L274.95035,1338.2745L274.396,1334.1296C274.35464,1333.8204,274.32608,1333.5095,274.3104,1333.1979L274.3104,1333.1979L274.10022,1329.0214C274.08453,1328.7098,274.0818,1328.3978,274.09186,1328.0859L274.09186,1328.0859L274.2273,1323.9064C274.23737,1323.5945,274.26038,1323.2832,274.2962,1322.9733L274.2962,1322.9733L274.77634,1318.8191C274.81216,1318.5092,274.86078,1318.201,274.92206,1317.8951L274.92206,1317.8951L275.7436,1313.7947C275.80487,1313.4888,275.87875,1313.1857,275.9651,1312.8859L275.9651,1312.8859L277.1223,1308.8674C278.85236,1302.86,285.12497,1299.3923,291.13254,1301.1223C297.1401,1302.8523,300.60773,1309.125,298.8777,1315.1326 Z"/> </g> <g style="fill:rgb(0,0,0); fill-opacity:1.0; stroke-linejoin: miter"> <path d="M-98.4022,-161.93665L-98.4022,-161.93665L-98.4022,-161.93665L-98.4022,-161.93665L-98.4022,-161.93665L-98.4022,-161.93665L-98.4022,-161.93665L-98.4022,-161.93665L-98.4022,-161.93665L-98.4022,-161.93665 M-98.40218,-139.29715L-98.40218,-139.29715L-98.40218,-139.29715L-98.40218,-139.29715L-98.40218,-139.29715L-98.40218,-139.29715L-98.40218,-139.29715L-98.40218,-139.29715L-98.40218,-139.29715 Z"/> </g> <g style="fill:rgb(0,0,0); fill-opacity:1.0; stroke-linejoin: miter"> <path d="M-98.4022,-161.93665L-98.4022,-161.93665L-98.4022,-161.93665L-98.4022,-161.93665L-98.4022,-161.93665L-98.4022,-161.93665L-98.4022,-161.93665L-98.4022,-161.93665L-98.4022,-161.93665L-98.4022,-161.93665 M-98.40218,-139.29715L-98.40218,-139.29715L-98.40218,-139.29715L-98.40218,-139.29715L-98.40218,-139.29715L-98.40218,-139.29715L-98.40218,-139.29715L-98.40218,-139.29715L-98.40218,-139.29715 Z"/> </g> <g style="fill:rgb(0,0,0); fill-opacity:1.0; stroke-linejoin: miter"> <path d="M-98.4022,-161.93665L-98.4022,-161.93665L-98.4022,-161.93665L-98.4022,-161.93665L-98.4022,-161.93665L-98.4022,-161.93665L-98.4022,-161.93665L-98.4022,-161.93665L-98.4022,-161.93665L-98.4022,-161.93665 M-98.40218,-139.29715L-98.40218,-139.29715L-98.40218,-139.29715L-98.40218,-139.29715L-98.40218,-139.29715L-98.40218,-139.29715L-98.40218,-139.29715L-98.40218,-139.29715L-98.40218,-139.29715 Z"/> </g> <g style="fill:rgb(0,0,0); fill-opacity:1.0; stroke-linejoin: miter"> <path d="M-98.4022,-161.93665L-98.4022,-161.93665L-98.4022,-161.93665L-98.4022,-161.93665L-98.4022,-161.93665L-98.4022,-161.93665L-98.4022,-161.93665L-98.4022,-161.93665L-98.4022,-161.93665L-98.4022,-161.93665 M-98.40218,-139.29715L-98.40218,-139.29715L-98.40218,-139.29715L-98.40218,-139.29715L-98.40218,-139.29715L-98.40218,-139.29715L-98.40218,-139.29715L-98.40218,-139.29715L-98.40218,-139.29715 Z"/> </g> <g style="fill:rgb(0,0,0); fill-opacity:1.0; stroke-linejoin: miter"> <path d="M805.75165,1315.1326L805.75165,1315.1326L806.90894,1319.151L806.68744,1318.2422L807.509,1322.3425L807.3632,1321.4186L807.8433,1325.5728L807.7745,1324.6395L807.90985,1328.8191L807.9182,1327.8837L807.70807,1332.0602L807.79364,1331.1284L807.2393,1335.2732L807.40155,1334.3518L806.5068,1338.4369L806.74457,1337.532L805.51556,1341.5289L805.8272,1340.6471L804.27234,1344.5292L804.6559,1343.6755L802.78577,1347.4159L803.2383,1346.5972L801.0657,1350.1702L801.5845,1349.3915L799.1242,1352.7728L799.70526,1352.0399L796.9741,1355.2068L797.614,1354.524L794.63074,1357.4545L795.3246,1356.827L792.1095,1359.5011L792.85315,1358.933L789.4281,1361.3323L790.2159,1360.8276L786.6045,1362.936L787.43115,1362.4982L783.658,1364.3011L784.5183,1363.933L780.6092,1365.4181L781.49646,1365.1222L777.47797,1366.2797L778.38727,1366.058L774.2869,1366.8794L775.2109,1366.7338L771.0567,1367.214L771.99,1367.145L767.81036,1367.2804L768.7459,1367.289L764.5694,1367.0787L765.5011,1367.1642L761.3562,1366.6099L762.2775,1366.7721L758.19257,1365.8773L759.09735,1366.1152L755.1003,1364.8862L755.9826,1365.1979L752.10065,1363.643L752.95386,1364.0262L749.21356,1362.1561L750.03235,1362.6089L746.4593,1360.4364L747.238,1360.955L743.8565,1358.4948L744.58966,1359.0759L741.4229,1356.3448L742.1053,1356.9845L739.17487,1354.0012L739.8026,1354.6956L737.1286,1351.4803L737.6965,1352.2236L735.29706,1348.7986L735.80176,1349.5864L733.69336,1345.9751L734.1313,1346.8018L732.32825,1343.0287L732.6965,1343.8888L731.2112,1339.9797C728.99084,1334.1355,722.45325,1331.1979,716.60913,1333.4183C710.76495,1335.6388,707.8273,1342.1761,710.0477,1348.0204L710.0477,1348.0204L711.5329,1351.9296C711.64374,1352.2212,711.7666,1352.5083,711.9011,1352.7897L711.9011,1352.7897L713.7041,1356.5629C713.8386,1356.8444,713.9847,1357.1201,714.142,1357.3896L714.142,1357.3896L716.2503,1361.001C716.40765,1361.2704,716.57605,1361.5332,716.755,1361.7887L716.755,1361.7887L719.1544,1365.2136C719.33344,1365.4691,719.5229,1365.717,719.72235,1365.9569L719.72235,1365.9569L722.3964,1369.1721C722.596,1369.4121,722.80536,1369.6438,723.0241,1369.8663L723.0241,1369.8663L725.9545,1372.8495C726.17316,1373.072,726.4008,1373.2855,726.63696,1373.4891L726.63696,1373.4891L729.8037,1376.2203C730.04,1376.4241,730.28455,1376.618,730.5368,1376.8015L730.5368,1376.8015L733.91833,1379.2618C734.17065,1379.4453,734.4304,1379.6184,734.697,1379.7805L734.697,1379.7805L738.2701,1381.9531C738.5367,1382.1152,738.8099,1382.2662,739.0889,1382.4058L739.0889,1382.4058L742.8292,1384.276C743.1082,1384.4155,743.3929,1384.5433,743.68243,1384.6593L743.68243,1384.6593L747.5644,1386.2141C747.8541,1386.3302,748.1485,1386.4341,748.4468,1386.5259L748.4468,1386.5259L752.4439,1387.7548C752.7421,1387.8466,753.0439,1387.9259,753.3487,1387.9927L753.3487,1387.9927L757.4336,1388.8873C757.73834,1388.9541,758.0457,1389.0083,758.3549,1389.0496L758.3549,1389.0496L762.4998,1389.6039C762.809,1389.6453,763.11993,1389.6738,763.4315,1389.6895L763.4315,1389.6895L767.60803,1389.8997C767.9196,1389.9153,768.23175,1389.9182,768.5435,1389.9081L768.5435,1389.9081L772.7231,1389.7727C773.035,1389.7626,773.3463,1389.7395,773.6563,1389.7037L773.6563,1389.7037L777.8105,1389.2235C778.1203,1389.1877,778.4285,1389.1392,778.7344,1389.0779L778.7344,1389.0779L782.83466,1388.2565C783.1407,1388.1952,783.44403,1388.1212,783.74396,1388.0349L783.74396,1388.0349L787.7623,1386.8774C788.062,1386.7911,788.35803,1386.6925,788.64966,1386.5817L788.64966,1386.5817L792.5587,1385.0964C792.85046,1384.9856,793.13745,1384.8629,793.419,1384.7284L793.419,1384.7284L797.19214,1382.9254C797.47363,1382.7909,797.7494,1382.6448,798.0188,1382.4874L798.0188,1382.4874L801.63025,1380.3792C801.89966,1380.2219,802.1624,1380.0535,802.41797,1379.8745L802.41797,1379.8745L805.8429,1377.4751C806.09845,1377.296,806.34656,1377.1064,806.5865,1376.907L806.5865,1376.907L809.8015,1374.2329C810.0414,1374.0333,810.2728,1373.8241,810.4954,1373.6055L810.4954,1373.6055L813.4787,1370.6752C813.7013,1370.4565,813.9148,1370.2286,814.1186,1369.9923L814.1186,1369.9923L816.84973,1366.8256C817.05334,1366.5894,817.24725,1366.3448,817.4308,1366.0927L817.4308,1366.0927L819.89105,1362.7112C820.07465,1362.4589,820.24774,1362.1991,820.40985,1361.9324L820.40985,1361.9324L822.5825,1358.3594C822.74457,1358.0928,822.8955,1357.8196,823.03503,1357.5406L823.03503,1357.5406L824.9053,1353.8004C825.0448,1353.5212,825.1727,1353.2365,825.2888,1352.9468L825.2888,1352.9468L826.8437,1349.0648C826.95966,1348.7751,827.0636,1348.4811,827.1553,1348.1829L827.1553,1348.1829L828.3843,1344.1859C828.476,1343.8877,828.5553,1343.5858,828.6221,1343.281L828.6221,1343.281L829.5168,1339.1959C829.58356,1338.8911,829.63763,1338.5837,829.679,1338.2745L829.679,1338.2745L830.23334,1334.1296C830.2747,1333.8204,830.3033,1333.5095,830.319,1333.1979L830.319,1333.1979L830.5291,1329.0214C830.54486,1328.7098,830.54755,1328.3978,830.53754,1328.0859L830.53754,1328.0859L830.40204,1323.9064C830.392,1323.5945,830.36896,1323.2832,830.3332,1322.9733L830.3332,1322.9733L829.853,1318.8191C829.8172,1318.5092,829.7686,1318.201,829.70734,1317.8951L829.70734,1317.8951L828.8858,1313.7947C828.8245,1313.4888,828.7506,1313.1857,828.66425,1312.8859L828.66425,1312.8859L827.507,1308.8674C825.77704,1302.86,819.5044,1299.3923,813.4968,1301.1223C807.48926,1302.8523,804.02167,1309.125,805.75165,1315.1326 Z"/> </g> <g style="fill:rgb(0,0,0); fill-opacity:1.0; stroke-linejoin: miter"> <path d="M-98.4022,-161.93665L-98.4022,-161.93665L-98.4022,-161.93665L-98.4022,-161.93665L-98.4022,-161.93665L-98.4022,-161.93665L-98.4022,-161.93665L-98.4022,-161.93665L-98.4022,-161.93665L-98.4022,-161.93665 M-98.40218,-139.29715L-98.40218,-139.29715L-98.40218,-139.29715L-98.40218,-139.29715L-98.40218,-139.29715L-98.40218,-139.29715L-98.40218,-139.29715L-98.40218,-139.29715L-98.40218,-139.29715 Z"/> </g> <g style="fill:rgb(0,0,0); fill-opacity:1.0; stroke-linejoin: miter"> <path d="M-98.4022,-161.93665L-98.4022,-161.93665L-98.4022,-161.93665L-98.4022,-161.93665L-98.4022,-161.93665L-98.4022,-161.93665L-98.4022,-161.93665L-98.4022,-161.93665L-98.4022,-161.93665L-98.4022,-161.93665 M-98.40218,-139.29715L-98.40218,-139.29715L-98.40218,-139.29715L-98.40218,-139.29715L-98.40218,-139.29715L-98.40218,-139.29715L-98.40218,-139.29715L-98.40218,-139.29715L-98.40218,-139.29715 Z"/> </g> <g style="fill:rgb(0,0,0); fill-opacity:1.0; stroke-linejoin: miter"> <path d="M-98.4022,-161.93665L-98.4022,-161.93665L-98.4022,-161.93665L-98.4022,-161.93665L-98.4022,-161.93665L-98.4022,-161.93665L-98.4022,-161.93665L-98.4022,-161.93665L-98.4022,-161.93665L-98.4022,-161.93665 M-98.40218,-139.29715L-98.40218,-139.29715L-98.40218,-139.29715L-98.40218,-139.29715L-98.40218,-139.29715L-98.40218,-139.29715L-98.40218,-139.29715L-98.40218,-139.29715L-98.40218,-139.29715 Z"/> </g> <g style="fill:rgb(0,0,0); fill-opacity:1.0; stroke-linejoin: miter"> <path d="M-98.4022,-161.93665L-98.4022,-161.93665L-98.4022,-161.93665L-98.4022,-161.93665L-98.4022,-161.93665L-98.4022,-161.93665L-98.4022,-161.93665L-98.4022,-161.93665L-98.4022,-161.93665L-98.4022,-161.93665 M-98.40218,-139.29715L-98.40218,-139.29715L-98.40218,-139.29715L-98.40218,-139.29715L-98.40218,-139.29715L-98.40218,-139.29715L-98.40218,-139.29715L-98.40218,-139.29715L-98.40218,-139.29715 Z"/> </g> <g style="fill:rgb(0,0,0); fill-opacity:1.0; stroke-linejoin: miter"> <path d="M-98.4022,-161.93665L-98.4022,-161.93665L-98.4022,-161.93665L-98.4022,-161.93665L-98.4022,-161.93665L-98.4022,-161.93665L-98.4022,-161.93665L-98.4022,-161.93665L-98.4022,-161.93665L-98.4022,-161.93665 M-98.40218,-139.29715L-98.40218,-139.29715L-98.40218,-139.29715L-98.40218,-139.29715L-98.40218,-139.29715L-98.40218,-139.29715L-98.40218,-139.29715L-98.40218,-139.29715L-98.40218,-139.29715 Z"/> </g> <g style="fill:rgb(0,0,0); fill-opacity:1.0; stroke-linejoin: miter"> <path d="M-98.4022,-161.93665L-98.4022,-161.93665L-98.4022,-161.93665L-98.4022,-161.93665L-98.4022,-161.93665L-98.4022,-161.93665L-98.4022,-161.93665L-98.4022,-161.93665L-98.4022,-161.93665L-98.4022,-161.93665 M-98.40218,-139.29715L-98.40218,-139.29715L-98.40218,-139.29715L-98.40218,-139.29715L-98.40218,-139.29715L-98.40218,-139.29715L-98.40218,-139.29715L-98.40218,-139.29715L-98.40218,-139.29715 Z"/> </g> <g style="fill:rgb(0,0,0); fill-opacity:1.0; stroke-linejoin: miter"> <path d="M820.6953,927.41656L820.6953,927.41656C826.4164,816.5699,831.95654,707.9,820.8374,641.87994L820.8374,641.87994C809.7898,576.28516,783.3015,557.6918,766.353,555.19934L766.353,555.19934C764.79395,554.97003,763.27124,554.8621,761.77454,554.8621L761.77454,554.8621C745.53955,554.8621,730.7666,567.2765,711.53906,584.4438C706.87573,588.60754,699.71985,588.20245,695.55615,583.53906C691.39233,578.8757,691.7975,571.7198,696.4608,567.5561L696.4608,567.5561C713.58606,552.26575,735.1655,532.2226,761.77454,532.2226L761.77454,532.2226C764.3672,532.2226,766.9929,532.4104,769.647,532.80066L769.647,532.80066C801.05396,537.41943,831.4546,568.60406,843.1626,638.11993L843.1626,638.11993C854.7993,707.21313,848.9614,818.9835,843.3047,928.58344C842.9824,934.82684,837.6599,939.6269,831.4165,939.30475C825.1731,938.9825,820.37305,933.66,820.6953,927.41656 Z"/> </g> </g> <g id="layer4"> <g style="fill:rgb(0,0,0); fill-opacity:1.0; stroke-linejoin: miter"> <path d="M609.92786,564.84564L609.92786,564.84564L616.4487,565.9727C616.66626,566.0103,616.88257,566.05426,617.09753,566.1045L617.09753,566.1045L623.5415,567.61084C623.7565,567.6611,623.96985,567.71765,624.18164,567.7804L624.18164,567.7804L630.52625,569.66095C630.7379,569.7237,630.94763,569.7926,631.1553,569.86755L631.1553,569.86755L637.3793,572.1158C637.5869,572.19086,637.79236,572.2719,637.99524,572.35895L637.99524,572.35895L644.077,574.9673C644.2799,575.0543,644.4801,575.1472,644.6776,575.246L644.6776,575.246L650.59656,578.20544C650.79407,578.30414,650.9885,578.4086,651.17993,578.51874L651.17993,578.51874L656.9158,581.8193C657.10706,581.9293,657.29504,582.04504,657.4796,582.1661L657.4796,582.1661L663.0126,585.79626C663.19727,585.91736,663.3783,586.0439,663.5554,586.17554L663.5554,586.17554L668.8667,590.12305C669.0438,590.2547,669.21716,590.3915,669.38635,590.53326L669.38635,590.53326L674.45776,594.7845C674.62695,594.9263,674.7919,595.07306,674.9525,595.22455L674.9525,595.22455L679.7667,599.765C679.92737,599.91644,680.0835,600.0726,680.23486,600.2332L680.23486,600.2332L684.7754,605.0474C684.9269,605.208,685.0736,605.373,685.21533,605.5421L685.21533,605.5421L689.46655,610.61346C689.6084,610.7827,689.74536,610.956,689.87695,611.1332L689.87695,611.1332L693.82446,616.4445C693.9562,616.6217,694.08264,616.8027,694.20374,616.98724L694.20374,616.98724L697.83386,622.5203C697.95496,622.70483,698.0707,622.8928,698.1808,623.08417L698.1808,623.08417L701.4813,628.81995C701.59143,629.01135,701.6959,629.2059,701.79456,629.4034L701.79456,629.4034L704.754,635.3223C704.8528,635.5198,704.9457,635.72,705.0327,635.92285L705.0327,635.92285L707.6411,642.00464C707.72815,642.2076,707.8092,642.41296,707.88416,642.62067L707.88416,642.62067L710.13245,648.84467C710.2074,649.0523,710.27637,649.26196,710.3391,649.4736L710.3391,649.4736L712.2196,655.8183C712.28235,656.02997,712.339,656.2434,712.38916,656.45844L712.38916,656.45844L713.8955,662.90234C713.9458,663.11725,713.98975,663.3337,714.02734,663.55115L714.02734,663.55115L715.1544,670.072C716.2191,676.2324,712.08826,682.08954,705.928,683.1543C699.7676,684.21906,693.9104,680.0882,692.8457,673.92786L692.8457,673.92786L691.7186,667.407L691.85034,668.0558L690.344,661.6119L690.51355,662.252L688.63293,655.9073L688.8396,656.5362L686.5913,650.3122L686.83435,650.9282L684.2261,644.84644L684.50464,645.44696L681.54517,639.52795L681.8585,640.1114L678.558,634.37555L678.9048,634.9394L675.27466,629.4064L675.65393,629.94916L671.7064,624.63794L672.1168,625.1576L667.8655,620.08624L668.30554,620.58093L663.765,615.7667L664.2333,616.2349L659.41907,611.69446L659.9137,612.1345L654.8423,607.88324L655.36194,608.2935L650.05066,604.346L650.5935,604.72534L645.0604,601.09515L645.62427,601.442L639.88855,598.1415L640.4719,598.45483L634.553,595.49536L635.15344,595.774L629.07166,593.16565L629.68774,593.40875L623.46375,591.16046L624.09265,591.36707L617.7479,589.4865L618.38806,589.65607L611.9441,588.14966L612.5929,588.28143L606.072,587.15436C599.91174,586.0896,595.7809,580.2325,596.8456,574.0721C597.9104,567.91174,603.76746,563.7809,609.92786,564.84564 Z"/> </g> <g style="fill:rgb(0,0,0); fill-opacity:1.0; stroke-linejoin: miter"> <path d="M-98.4022,-161.93665L-98.4022,-161.93665L-98.4022,-161.93665L-98.4022,-161.93665L-98.4022,-161.93665L-98.4022,-161.93665L-98.4022,-161.93665L-98.4022,-161.93665L-98.4022,-161.93665L-98.4022,-161.93665 M-98.40218,-139.29715L-98.40218,-139.29715L-98.40218,-139.29715L-98.40218,-139.29715L-98.40218,-139.29715L-98.40218,-139.29715L-98.40218,-139.29715L-98.40218,-139.29715L-98.40218,-139.29715 Z"/> </g> <g style="fill:rgb(0,0,0); fill-opacity:1.0; stroke-linejoin: miter"> <path d="M584.0043,616.0043L584.0043,616.0043L552.0,648.00854C547.57935,652.4292,540.4121,652.4292,535.99146,648.00854C531.5708,643.5879,531.5708,636.42065,535.99146,632.0L535.99146,632.0L567.9957,599.9957C572.4164,595.5751,579.5836,595.5751,584.0043,599.9957C588.4249,604.4164,588.4249,611.5836,584.0043,616.0043 Z"/> </g> <g style="fill:rgb(0,0,0); fill-opacity:1.0; stroke-linejoin: miter"> <path d="M624.2356,638.31964L624.2356,638.31964L548.21643,718.8863C543.92596,723.4334,536.7617,723.6415,532.2146,719.351C527.6675,715.06055,527.4594,707.8963,531.7499,703.3492L531.7499,703.3492L607.76904,622.78253C612.0595,618.2354,619.22375,618.02734,623.7709,622.3178C628.318,626.6083,628.52606,633.7725,624.2356,638.31964 Z"/> </g> <g style="fill:rgb(0,0,0); fill-opacity:1.0; stroke-linejoin: miter"> <path d="M648.34827,682.9101L648.34827,682.9101L561.77734,769.3154C557.3525,773.7318,550.1852,773.7249,545.7688,769.30005C541.3524,764.8752,541.3593,757.7079,545.7842,753.2915L545.7842,753.2915L632.3551,666.88617C636.77997,662.4698,643.94727,662.4767,648.36365,666.90155C652.78,671.3264,652.77313,678.4937,648.34827,682.9101 Z"/> </g> <g style="fill:rgb(0,0,0); fill-opacity:1.0; stroke-linejoin: miter"> <path d="M679.3083,712.6444L679.3083,712.6444L645.28033,741.41296C640.50616,745.4492,633.3639,744.851,629.32764,740.07684C625.2914,735.3027,625.8896,728.1604,630.66376,724.12415L630.66376,724.12415L664.6917,695.3556C669.4659,691.31934,676.60815,691.91754,680.6444,696.6917C684.68066,701.4659,684.08246,708.60815,679.3083,712.6444 Z"/> </g> </g> <g id="layer5"> <g style="fill:rgb(0,0,0); fill-opacity:1.0; stroke-linejoin: miter"> <path d="M181.37453,995.90344L181.37453,995.90344L179.33195,990.34326C179.22075,990.0405,179.12251,989.73315,179.03755,989.4221L179.03755,989.4221L177.477,983.708C177.39204,983.39685,177.32039,983.08215,177.26228,982.7649L177.26228,982.7649L176.1952,976.93835C176.1371,976.6212,176.09258,976.30176,176.06175,975.9807L176.06175,975.9807L175.49583,970.0842C175.46504,969.7632,175.44795,969.4409,175.44466,969.1184L175.44466,969.1184L175.38411,963.1952C175.38081,962.8728,175.39131,962.5503,175.41554,962.22864L175.41554,962.22864L175.86082,956.322C175.88506,956.00037,175.92308,955.67993,175.97469,955.3616L175.97469,955.3616L176.92247,949.51465C176.97408,949.1963,177.03926,948.8804,177.11784,948.5675L177.11784,948.5675L178.5613,942.8225C178.63988,942.50964,178.7318,942.2003,178.8368,941.8954L178.8368,941.8954L180.76534,936.2947C180.87035,935.98975,180.98833,935.6896,181.11897,935.39465L181.11897,935.39465L183.51854,929.979C183.64919,929.6841,183.7924,929.395,183.94774,929.1123L183.94774,929.1123L186.8008,923.92126C186.95613,923.6387,187.12343,923.3627,187.30232,923.09436L187.30232,923.09436L190.58806,918.1658C190.76698,917.89734,190.95729,917.6367,191.15846,917.38464L191.15846,917.38464L194.85289,912.7545C195.054,912.50244,195.26585,912.25916,195.48775,912.02515L195.48775,912.02515L199.56392,907.7273C199.78584,907.4933,200.01765,907.2688,200.25877,907.05444L200.25877,907.05444L204.68694,903.1201C204.92805,902.9059,205.17824,902.7023,205.43678,902.5094L205.43678,902.5094L210.18459,898.9674C210.44304,898.77454,210.70967,898.5928,210.98363,898.42285L210.98363,898.42285L216.01643,895.2991C216.29045,895.1289,216.57164,894.9706,216.85915,894.82446L216.85915,894.82446L222.14024,892.1417C222.42775,891.9956,222.72142,891.86194,223.02037,891.74097L223.02037,891.74097L228.51115,889.5187C228.8101,889.3977,229.11406,889.28955,229.42226,889.1946L229.42226,889.1946L235.08272,887.4491C235.39091,887.354,235.70305,887.2722,236.01823,887.20374L236.01823,887.20374L241.80702,885.9479C242.12224,885.8794,242.44017,885.8246,242.76006,885.7833L242.76006,885.7833L248.6349,885.0261C248.95476,884.98486,249.27629,884.9574,249.5985,884.9435L249.5985,884.9435L255.51653,884.69055C255.83873,884.67676,256.16125,884.67676,256.48346,884.69055L256.48346,884.69055L262.40155,884.9435C262.72375,884.9574,263.04523,884.98486,263.3651,885.0261L263.3651,885.0261L269.24,885.7833C269.55988,885.8246,269.8778,885.8794,270.19305,885.9479L270.19305,885.9479L275.9818,887.20374C276.297,887.2722,276.60907,887.354,276.9173,887.4491L276.9173,887.4491L282.57776,889.1946C282.88593,889.28955,283.18988,889.3977,283.48883,889.5187L283.48883,889.5187L288.9796,891.74097C289.27856,891.86194,289.57227,891.9956,289.85974,892.1417L289.85974,892.1417L295.14087,894.82446C295.42834,894.9706,295.70953,895.1289,295.98358,895.2991L295.98358,895.2991L301.01636,898.42285C301.29034,898.5928,301.55695,898.77454,301.81543,898.9674L301.81543,898.9674L306.56323,902.5094C306.82178,902.7023,307.07196,902.9059,307.31305,903.1201L307.31305,903.1201L311.7412,907.05444C311.98236,907.2688,312.21417,907.4933,312.4361,907.7273L312.4361,907.7273L316.51227,912.02515C316.7342,912.25916,316.94604,912.50256,317.14722,912.75464L317.14722,912.75464L320.8416,917.3849C321.04272,917.63696,321.23297,917.89746,321.41187,918.1658L321.41187,918.1658L324.69763,923.09424C324.87653,923.36255,325.04388,923.63855,325.19922,923.92126L325.19922,923.92126L328.05225,929.1123C328.20758,929.395,328.35077,929.6841,328.48145,929.979L328.48145,929.979L330.88104,935.39465C331.01166,935.6896,331.12964,935.98975,331.23468,936.2947L331.23468,936.2947L333.1632,941.8954C333.2682,942.2003,333.3601,942.50964,333.43872,942.8225L333.43872,942.8225L334.88214,948.5675C334.96075,948.8804,335.02594,949.1963,335.0775,949.51465L335.0775,949.51465L336.02533,955.3616C336.0769,955.67993,336.11493,956.00037,336.13916,956.322L336.13916,956.322L336.58447,962.22864C336.6087,962.5503,336.6192,962.8728,336.6159,963.1952L336.6159,963.1952L336.55536,969.1184C336.55206,969.4409,336.53497,969.76306,336.50415,970.0841L336.50415,970.0841L335.9383,975.9806C335.90747,976.3015,335.8629,976.6212,335.8048,976.9385L335.8048,976.9385L334.73767,982.765C334.67963,983.0823,334.60797,983.397,334.523,983.708L334.523,983.708L332.96246,989.4221C332.8775,989.73315,332.77924,990.0405,332.66803,990.34326L332.66803,990.34326L330.6255,995.90344C328.46967,1001.7716,321.96484,1004.7811,316.09662,1002.62537C310.22833,1000.4696,307.21875,993.9647,309.3745,988.09656L309.3745,988.09656L311.4171,982.5364L311.12274,983.4575L312.6833,977.7434L312.46863,978.6864L313.53577,972.85986L313.40228,973.8179L313.9682,967.9214L313.917,968.8871L313.97754,962.96387L314.00897,963.93054L313.56372,958.0238L313.67755,958.98413L312.72974,953.1371L312.9251,954.0842L311.48163,948.33923L311.7572,949.26636L309.82867,943.66565L310.1823,944.5658L307.7827,939.15L308.2119,940.0167L305.3589,934.8257L305.86047,935.6527L302.5747,930.7241L303.14496,931.505L299.4505,926.87476L300.0855,927.60425L296.00934,923.3063L296.70416,923.979L292.276,920.0447L293.02588,920.6555L288.27808,917.11365L289.07715,917.6582L284.04437,914.5344L284.8871,915.00903L279.60596,912.3262L280.48608,912.7269L274.99536,910.50464L275.90643,910.82874L270.24603,909.08325L271.18152,909.3286L265.39276,908.07263L266.34583,908.23706L260.47095,907.47986L261.43457,907.5625L255.51653,907.30945L256.48346,907.30945L250.56548,907.5625L251.52907,907.47986L245.65422,908.23706L246.60725,908.07263L240.81847,909.3286L241.75398,909.08325L236.09355,910.82874L237.00465,910.50464L231.5139,912.7269L232.39403,912.3262L227.11293,915.00903L227.95564,914.5344L222.92287,917.6582L223.72191,917.11365L218.97414,920.6555L219.72398,920.0447L215.29582,923.979L215.99068,923.3063L211.9145,927.60425L212.54936,926.8749L208.85493,931.505L209.42534,930.7239L206.1396,935.6526L206.64113,934.8257L203.78807,940.0167L204.21727,939.15L201.8177,944.5658L202.17134,943.66565L200.24281,949.26636L200.51836,948.33923L199.0749,954.0842L199.27025,953.1371L198.32246,958.98413L198.4363,958.0238L197.99101,963.93054L198.02248,962.96387L198.083,968.8871L198.03181,967.92126L198.59773,973.8176L198.46428,972.86L199.53139,978.6865L199.3167,977.7434L200.87724,983.4575L200.58287,982.5364L202.62544,988.09656C204.78127,993.9647,201.77168,1000.4696,195.9034,1002.62537C190.03514,1004.7811,183.53035,1001.7716,181.37453,995.90344 Z"/> </g> <g style="fill:rgb(0,0,0); fill-opacity:1.0; stroke-linejoin: miter"> <path d="M310.0818,922.5443L310.0818,922.5443L312.78973,917.6216C312.93262,917.36194,313.08557,917.10767,313.2484,916.86L313.2484,916.86L316.3343,912.1649C316.497,911.91724,316.6695,911.67615,316.8512,911.442L316.8512,911.442L320.2959,907.0034C320.47766,906.7693,320.66858,906.54224,320.8681,906.3231L320.8681,906.3231L324.65045,902.1686C324.84998,901.94946,325.05798,901.7383,325.274,901.5355L325.274,901.5355L329.37067,897.6904C329.5868,897.48755,329.8108,897.2932,330.04218,897.1079L330.04218,897.1079L334.42786,893.5962C334.65924,893.4109,334.8979,893.23474,335.14307,893.0681L335.14307,893.0681L339.79077,889.9114C340.03595,889.745,340.28754,889.588,340.54498,889.4413L340.54498,889.4413L345.42603,886.65894C345.68353,886.5121,345.94666,886.3755,346.2149,886.2494L346.2149,886.2494L351.2992,883.8585C351.56744,883.7323,351.84058,883.6167,352.11792,883.5121L352.11792,883.5121L357.37415,881.5276C357.65137,881.42285,357.93256,881.329,358.21716,881.24646L358.21716,881.24646L363.6129,879.6803C363.8977,879.59766,364.1856,879.52625,364.47595,879.4662L364.47595,879.4662L369.9779,878.3285C370.26807,878.26843,370.5605,878.22,370.85443,878.18286L370.85443,878.18286L376.4287,877.4801C376.72278,877.443,377.01813,877.4176,377.31415,877.40356L377.31415,877.40356L382.92645,877.1404C383.22253,877.12634,383.51917,877.12427,383.8155,877.13367L383.8155,877.13367L389.4311,877.31165C389.72723,877.32104,390.02295,877.34204,390.31744,877.37463L390.31744,877.37463L395.9018,877.99255C396.19635,878.02527,396.4895,878.06934,396.78064,878.125L396.78064,878.125L402.29926,879.1792C402.59045,879.23486,402.87933,879.3019,403.16528,879.3801L403.16528,879.3801L408.58423,880.86414C408.87,880.9424,409.15265,881.03174,409.4314,881.1323L409.4314,881.1323L414.71716,883.03674C414.99603,883.1373,415.2708,883.24866,415.54102,883.3707L415.54102,883.3707L420.661,885.6841C420.93115,885.80615,421.1964,885.93896,421.45612,886.0818L421.45612,886.0818L426.37885,888.7898C426.63843,888.9326,426.89233,889.0856,427.13995,889.2483L427.13995,889.2483L431.83508,892.3341C432.08282,892.49695,432.3241,892.66956,432.55835,892.8512L432.55835,892.8512L436.99683,896.296C437.2309,896.4778,437.45776,896.6686,437.67688,896.8679L437.67688,896.8679L441.83142,900.65027C442.05066,900.84985,442.2619,901.058,442.46478,901.2742L442.46478,901.2742L446.3098,905.371C446.51263,905.5869,446.7069,905.81104,446.89215,906.04236L446.89215,906.04236L450.4038,910.428C450.58905,910.6593,450.76508,910.8978,450.93164,911.14294L450.93164,911.14294L454.08844,915.7905C454.255,916.0359,454.41187,916.2875,454.55865,916.54517L454.55865,916.54517L457.34106,921.4263C457.48785,921.6837,457.6244,921.9469,457.7505,922.21497L457.7505,922.21497L460.14142,927.2993C460.26752,927.5675,460.38306,927.84045,460.4878,928.1178L460.4878,928.1178L462.47235,933.374C462.5771,933.65137,462.67078,933.9326,462.75342,934.2173L462.75342,934.2173L464.31946,939.61304C464.4021,939.8976,464.4735,940.1854,464.53357,940.4757L464.53357,940.4757L465.67145,945.97766C465.73145,946.2678,465.78003,946.5604,465.81714,946.8545L465.81714,946.8545L466.51984,952.4287C466.5569,952.7229,466.5824,953.0182,466.5963,953.31433L466.5963,953.31433L466.8595,958.9265C466.87335,959.22266,466.8756,959.51917,466.8662,959.8153L466.8662,959.8153L466.6883,965.431C466.6789,965.7272,466.65784,966.02295,466.62524,966.3175L466.62524,966.3175L466.00726,971.90173C465.97467,972.1963,465.93048,972.4896,465.87488,972.78076L465.87488,972.78076L464.82062,978.29944C464.765,978.5906,464.698,978.8794,464.6197,979.16516L464.6197,979.16516L463.13574,984.584C463.0575,984.8699,462.96796,985.1526,462.8675,985.4314L462.8675,985.4314L460.9629,990.71716C460.86243,990.996,460.7511,991.27075,460.62903,991.5409L460.62903,991.5409L458.3156,996.6609C455.74146,1002.35815,449.0362,1004.8898,443.33905,1002.3157C437.6419,999.7416,435.11017,993.03613,437.6844,987.339L437.6844,987.339L439.9978,982.2189L439.66388,983.0427L441.56848,977.75696L441.30023,978.60425L442.78418,973.1854L442.58325,974.0513L443.6375,968.5325L443.50513,969.4115L444.1231,963.8273L444.06006,964.71387L444.23804,959.09814L444.2448,959.98694L443.98163,954.37463L444.0581,955.26025L443.3554,949.6859L443.5011,950.56287L442.36316,945.0609L442.57727,945.9236L441.01117,940.52783L441.29224,941.371L439.30768,936.11475L439.6541,936.93335L437.26318,931.849L437.6726,932.6377L434.8902,927.7566L435.36047,928.5111L432.20367,923.8635L432.7315,924.5785L429.2198,920.19275L429.80212,920.86414L425.9571,916.76733L426.59045,917.39124L422.4359,913.609L423.11597,914.1809L418.6775,910.7361L419.40076,911.2533L414.70563,908.1675L415.46674,908.626L410.544,905.91797L411.33905,906.31555L406.21906,904.0021L407.04285,904.33606L401.75708,902.4315L402.6043,902.6997L397.18542,901.2157L398.05145,901.4165L392.53284,900.3624L393.41168,900.49475L387.82733,899.87683L388.71368,899.9398L383.09814,899.76184L383.98724,899.7551L378.37494,900.0183L379.26038,899.9419L373.6861,900.64465L374.56262,900.499L369.06067,901.6367L369.92365,901.4226L364.52783,902.9888L365.3709,902.70776L360.1147,904.69226L360.9334,904.3458L355.84906,906.7368L356.63794,906.3273L351.7569,909.10974L352.51105,908.63965L347.86334,911.7964L348.57855,911.26843L344.19287,914.78015L344.86438,914.19775L340.76776,918.04285L341.39124,917.40967L337.6089,921.5642L338.1811,920.8839L334.7364,925.3225L335.2533,924.5995L332.16742,929.2947L332.6261,928.5331L329.9182,933.4558C326.90503,938.9336,320.02185,940.9315,314.54413,937.91833C309.06647,934.90515,307.0686,928.0221,310.0818,922.5443 Z"/> </g> <g style="fill:rgb(0,0,0); fill-opacity:1.0; stroke-linejoin: miter"> <path d="M213.3745,899.9031L213.3745,899.9031L211.33202,894.343C211.22084,894.0404,211.1226,893.73315,211.03767,893.4221L211.03767,893.4221L209.47713,887.708C209.39217,887.39685,209.32051,887.08215,209.26244,886.7649L209.26244,886.7649L208.19533,880.93835C208.13722,880.6211,208.0927,880.3015,208.06187,879.9806L208.06187,879.9806L207.49602,874.0841C207.4652,873.76306,207.44814,873.4409,207.44481,873.1184L207.44481,873.1184L207.38432,867.19543C207.381,866.8729,207.39153,866.5504,207.41576,866.22876L207.41576,866.22876L207.86104,860.32214C207.88527,860.0005,207.9233,859.6802,207.97487,859.3618L207.97487,859.3618L208.92268,853.51465C208.97426,853.1963,209.0395,852.8804,209.11806,852.5675L209.11806,852.5675L210.56154,846.82263C210.64009,846.50977,210.73201,846.20056,210.83702,845.8955L210.83702,845.8955L212.76555,840.2949C212.87056,839.98987,212.98851,839.6897,213.11919,839.3948L213.11919,839.3948L215.51875,833.9791C215.6494,833.6842,215.79259,833.39514,215.94792,833.1124L215.94792,833.1124L218.80098,827.9214C218.95631,827.6388,219.12367,827.3629,219.3026,827.0946L219.3026,827.0946L222.5883,822.166C222.76717,821.8977,222.95741,821.6372,223.15852,821.385L223.15852,821.385L226.85295,816.7549C227.05415,816.5027,227.26607,816.25916,227.48805,816.02527L227.48805,816.02527L231.56422,811.7274C231.78612,811.4934,232.0179,811.26904,232.25896,811.05493L232.25896,811.05493L236.68703,807.1206C236.92815,806.9064,237.17839,806.7025,237.4369,806.50964L237.4369,806.50964L242.18471,802.9678C242.44316,802.7749,242.70976,802.59314,242.98375,802.4231L242.98375,802.4231L248.0165,799.2993C248.29054,799.12915,248.57167,798.97095,248.85924,798.8248L248.85924,798.8248L254.14034,796.14197C254.42784,795.99585,254.72151,795.8623,255.02046,795.7412L255.02046,795.7412L260.51123,793.51904C260.81018,793.39795,261.11414,793.2899,261.4223,793.1948L261.4223,793.1948L267.0827,791.44934C267.39093,791.3544,267.70306,791.2726,268.01825,791.2041L268.01825,791.2041L273.807,789.9481C274.1222,789.87964,274.4402,789.82495,274.76007,789.7837L274.76007,789.7837L280.6349,789.02637C280.9547,788.9851,281.27625,788.95764,281.5985,788.94385L281.5985,788.94385L287.51648,788.6908C287.83868,788.677,288.16125,788.677,288.48346,788.6908L288.48346,788.6908L294.4015,788.94385C294.7237,788.95764,295.04523,788.9851,295.36505,789.02637L295.36505,789.02637L301.23993,789.7837C301.5598,789.82495,301.8778,789.87964,302.193,789.9481L302.193,789.9481L307.98175,791.2041C308.29694,791.2726,308.609,791.3544,308.91724,791.44934L308.91724,791.44934L314.5777,793.1948C314.88574,793.2899,315.18964,793.39795,315.48853,793.51904L315.48853,793.51904L320.9793,795.7411C321.27832,795.86206,321.57208,795.99585,321.85968,796.14197L321.85968,796.14197L327.14075,798.8248C327.42828,798.97095,327.70947,799.12915,327.98346,799.2992L327.98346,799.2992L333.01624,802.423C333.29034,802.59314,333.557,802.7749,333.8155,802.9678L333.8155,802.9678L338.5633,806.50977C338.82172,806.7025,339.07178,806.90625,339.3128,807.12036L339.3128,807.12036L343.74097,811.05457C343.98212,811.2688,344.214,811.4934,344.43597,811.7274L344.43597,811.7274L348.51215,816.0254C348.73407,816.2594,348.94598,816.5027,349.1471,816.7549L349.1471,816.7549L352.84155,821.385C353.04266,821.6372,353.2329,821.8976,353.41174,822.1659L353.41174,822.1659L356.6975,827.0945C356.8764,827.3627,357.04382,827.6388,357.19916,827.9214L357.19916,827.9214L360.0522,833.1124C360.20752,833.39514,360.3507,833.6842,360.48138,833.9791L360.48138,833.9791L362.88092,839.3948C363.0116,839.6897,363.12952,839.98987,363.23456,840.2949L363.23456,840.2949L365.1631,845.8955C365.26807,846.20056,365.36,846.50977,365.4386,846.82263L365.4386,846.82263L366.88202,852.5675C366.96063,852.8804,367.02582,853.1963,367.0774,853.51465L367.0774,853.51465L368.0252,859.3618C368.07678,859.6802,368.1148,860.0005,368.13904,860.32214L368.13904,860.32214L368.58435,866.22876C368.60858,866.5504,368.61908,866.8729,368.61578,867.19543L368.61578,867.19543L368.5553,873.1184C368.552,873.4409,368.5349,873.76306,368.5041,874.0841L368.5041,874.0841L367.93823,879.9806C367.9074,880.3015,367.86285,880.6212,367.80475,880.9385L367.80475,880.9385L366.7376,886.765C366.67957,887.08215,366.6079,887.39685,366.52295,887.7079L366.52295,887.7079L364.9624,893.422C364.87744,893.73303,364.77924,894.0405,364.66803,894.34326L364.66803,894.34326L362.62543,899.90344C360.46967,905.7716,353.96484,908.7811,348.09656,906.62537C342.22827,904.4697,339.2187,897.9647,341.3745,892.09656L341.3745,892.09656L343.4171,886.5364L343.12274,887.45764L344.68323,881.7435L344.46857,882.6864L345.5357,876.85986L345.40222,877.8179L345.96814,871.9214L345.91693,872.8871L345.97742,866.9641L346.0089,867.93066L345.5636,862.0239L345.67743,862.98425L344.72968,857.1372L344.92505,858.08435L343.48157,852.3395L343.75708,853.2665L341.82855,847.6659L342.1822,848.5659L339.78265,843.15027L340.2118,844.01685L337.35876,838.8258L337.8604,839.65283L334.57465,834.72437L335.14484,835.5051L331.45044,830.875L332.0854,831.6044L328.00922,827.3064L328.70428,827.9794L324.27612,824.04517L325.02557,824.65576L320.27777,821.11365L321.07703,821.65845L316.04425,818.53467L316.88696,819.00903L311.6059,816.3262L312.48633,816.72705L306.99554,814.505L307.90643,814.8291L302.24597,813.0836L303.18146,813.32886L297.3927,812.0729L298.34576,812.2374L292.4709,811.4802L293.4345,811.56274L287.51648,811.3097L288.48346,811.3097L282.56543,811.56274L283.52905,811.4802L277.65424,812.2374L278.6073,812.0729L272.81854,813.32886L273.7541,813.0836L268.0937,814.8291L269.00476,814.505L263.51398,816.7272L264.3941,816.3264L259.11304,819.0093L259.9558,818.5348L254.92302,821.65857L255.72206,821.1139L250.97426,824.6559L251.72414,824.0449L247.29597,827.97925L247.9907,827.30676L243.91454,831.6045L244.54964,830.875L240.85521,835.5051L241.42543,834.72424L238.13972,839.6527L238.64134,838.8258L235.78831,844.01685L236.21748,843.15027L233.81792,848.5659L234.17155,847.6659L232.24303,853.2665L232.51851,852.3395L231.07506,858.08435L231.27046,857.1372L230.32268,862.98425L230.43651,862.0239L229.99123,867.93066L230.02266,866.9641L230.08318,872.8871L230.032,871.9214L230.59785,877.8179L230.46443,876.86L231.53151,882.6865L231.31682,881.7434L232.8774,887.4575L232.58308,886.53674L234.62556,892.0968C236.78123,897.9652,233.77156,904.46985,227.90324,906.6256C222.03493,908.78125,215.53017,905.7715,213.3745,899.9031 Z"/> </g> <g style="fill:rgb(0,0,0); fill-opacity:1.0; stroke-linejoin: miter"> <path d="M437.98553,922.7229L437.98553,922.7229L440.09778,918.7145C440.23462,918.45483,440.38147,918.2007,440.5381,917.9524L440.5381,917.9524L442.95538,914.12024C443.11194,913.87195,443.2782,913.6299,443.45355,913.39465L443.45355,913.39465L446.16132,909.76184C446.33667,909.5265,446.52118,909.298,446.71436,909.077L446.71436,909.077L449.6961,905.66565C449.88928,905.4447,450.09088,905.2313,450.30066,905.026L450.30066,905.026L453.53845,901.8567C453.74817,901.6515,453.96576,901.45447,454.19073,901.266L454.19073,901.266L457.66504,898.35767C457.89014,898.1692,458.12244,897.9896,458.3615,897.8192L458.3615,897.8192L462.05127,895.1897C462.29016,895.0194,462.53552,894.8585,462.78693,894.7074L462.78693,894.7074L466.6698,892.3723C466.92133,892.22095,467.1787,892.07947,467.44128,891.94824L467.44128,891.94824L471.49384,889.922C471.75635,889.79065,472.02393,889.6697,472.29584,889.5592L472.29584,889.5592L476.4936,887.854C476.76544,887.7435,477.04144,887.6437,477.3211,887.5548L477.3211,887.5548L481.6386,886.1808C481.91827,886.0918,482.20123,886.01355,482.487,885.94666L482.487,885.94666L486.8982,884.91223C487.1839,884.8452,487.4721,884.7893,487.76215,884.74475L487.76215,884.74475L492.24036,884.056C492.53052,884.01135,492.82227,883.9783,493.115,883.9563L493.115,883.9563L497.63324,883.6178C497.92584,883.5958,498.2193,883.5853,498.51282,883.5862L498.51282,883.5862L503.04364,883.59973C503.33704,883.6006,503.6303,883.6129,503.92273,883.6365L503.92273,883.6365L508.4389,884.00195C508.73145,884.0255,509.023,884.06055,509.3128,884.1068L509.3128,884.1068L513.78687,884.822C514.08844,884.87036,514.38806,884.9308,514.6847,885.0032L514.6847,885.0032L519.44617,886.16565C519.7547,886.24097,520.06,886.3292,520.3611,886.4302L520.3611,886.4302L525.008,887.9888C525.30884,888.0897,525.60535,888.20325,525.8967,888.3291L525.8967,888.3291L530.39636,890.27246C530.68787,890.39844,530.974,890.5365,531.2539,890.6864L531.2539,890.6864L535.5742,893.0012C535.8541,893.1511,536.1275,893.31287,536.3938,893.48584L536.3938,893.48584L540.50433,896.1554C540.7705,896.32825,541.0293,896.5123,541.2801,896.70703L541.2801,896.70703L545.1517,899.7125C545.4025,899.90735,545.64514,900.1124,545.8788,900.32764L545.8788,900.32764L549.4842,903.64795C549.71765,903.86304,549.9419,904.08777,550.15656,904.32166L550.15656,904.32166L553.4701,907.933C553.6847,908.167,553.8895,908.4098,554.08374,908.661L554.08374,908.661L557.08215,912.5382C557.27637,912.7894,557.45996,913.0486,557.6324,913.3152L557.6324,913.3152L560.29443,917.43066C560.4669,917.69727,560.628,917.97095,560.77747,918.2511L560.77747,918.2511L563.08417,922.5757C563.2336,922.85583,563.37115,923.1421,563.4966,923.43384L563.4966,923.43384L565.4317,927.937C565.55707,928.22864,565.6701,928.5254,565.7705,928.82654L565.7705,928.82654L567.32043,933.4762C567.4209,933.77747,567.50854,934.0829,567.5833,934.3916L567.5833,934.3916L568.73694,939.15515C568.8117,939.4636,568.87335,939.77515,568.9219,940.08887L568.9219,940.08887L569.67126,944.9326C569.7198,945.24634,569.7551,945.56213,569.7771,945.8789L569.7771,945.8789L570.11676,950.7683C570.13873,951.0851,570.1474,951.4026,570.14276,951.7201L570.14276,951.7201L570.0703,956.62085C570.0656,956.93823,570.04755,957.25525,570.01624,957.5713L570.01624,957.5713L569.5323,962.4487C569.501,962.76465,569.45636,963.0791,569.3985,963.39136L569.3985,963.39136L568.5064,968.2108C568.4486,968.5231,568.3776,968.83264,568.2938,969.1389L568.2938,969.1389L566.9999,973.8662C566.9161,974.17236,566.8194,974.475,566.7101,974.7732L566.7101,974.7732L565.02344,979.3751C564.9141,979.67334,564.7924,979.96655,564.65845,980.2544L564.65845,980.2544L562.59106,984.69836C562.45715,984.9862,562.3112,985.2683,562.15356,985.54395L562.15356,985.54395L559.7201,989.79846C559.5624,990.0742,559.3932,990.343,559.2129,990.6045L559.2129,990.6045L556.4304,994.6393C556.2502,994.90063,556.05914,995.1543,555.8576,995.39966L555.8576,995.39966L552.7459,999.1865C548.7769,1004.0167,541.64374,1004.71484,536.8135,1000.74585C531.9833,996.77673,531.28503,989.6437,535.254,984.81335L535.254,984.81335L538.3657,981.0265L537.7929,981.78687L540.5754,977.7521L540.0682,978.558L542.5017,974.30334L542.0642,975.1489L544.1316,970.7051L543.76666,971.58435L545.4533,966.9823L545.1636,967.88916L546.4576,963.16187L546.245,964.08997L547.13715,959.2705L547.00336,960.21326L547.4873,955.3358L547.4333,956.28613L547.50574,951.3854L547.5317,952.33716L547.1921,947.44763L547.2979,948.3939L546.5486,943.5502L546.7335,944.4839L545.57983,939.72034L545.8427,940.63574L544.2928,935.9861L544.63153,936.8756L542.69635,932.37244L543.10876,933.2306L540.802,928.9061L541.285,929.72656L538.623,925.6111L539.1732,926.38806L536.1748,922.51086L536.78845,923.2389L533.4749,919.62744L534.1473,920.30115L530.54193,916.9807L531.269,917.5958L527.3974,914.59045L528.1732,915.14197L524.0627,912.4724L524.88226,912.95703L520.562,910.64233L521.4196,911.0563L516.92004,909.1128L517.8088,909.4531L513.1619,907.89453L514.07684,908.1592L509.31537,906.9967L510.2132,907.17786L505.73914,906.46265L506.6131,906.5676L502.09692,906.2023L502.97607,906.239L498.44525,906.2256L499.32483,906.194L494.80658,906.5325L495.68127,906.43274L491.20306,907.12134L492.06696,906.95386L487.65576,907.9883L488.50415,907.75415L484.18665,909.1282L485.01422,908.829L480.81647,910.5342L481.61853,910.1715L477.56604,912.19775L478.33752,911.7737L474.45465,914.10876L475.1903,913.62634L471.50067,916.25586L472.1972,915.7175L468.7229,918.62585L469.37518,918.0353L466.1374,921.2046L466.74194,920.56494L463.7602,923.9763L464.31323,923.2916L461.60547,926.9243L462.10364,926.1987L459.68634,930.0309L460.12665,929.2688L458.0144,933.2772C455.09998,938.8081,448.25372,940.92896,442.7229,938.0145C437.19208,935.1001,435.0711,928.2538,437.98553,922.7229 Z"/> </g> <g style="fill:rgb(0,0,0); fill-opacity:1.0; stroke-linejoin: miter"> <path d="M342.08173,826.5443L342.08173,826.5443L344.7896,821.6216C344.9325,821.36194,345.08557,821.10767,345.24835,820.8601L345.24835,820.8601L348.33423,816.1649C348.49695,815.91724,348.66943,815.67615,348.85114,815.442L348.85114,815.442L352.29584,811.0034C352.47754,810.7693,352.6684,810.5425,352.86792,810.32324L352.86792,810.32324L356.65027,806.1686C356.84985,805.94946,357.05798,805.73804,357.2741,805.53516L357.2741,805.53516L361.3708,801.6903C361.58685,801.4874,361.8108,801.2932,362.0421,801.1079L362.0421,801.1079L366.4278,797.5962C366.65918,797.4109,366.89783,797.23474,367.143,797.06824L367.143,797.06824L371.7907,793.9114C372.0359,793.745,372.28748,793.588,372.54492,793.4414L372.54492,793.4414L377.42596,790.65894C377.68347,790.5121,377.9466,790.3755,378.21484,790.2494L378.21484,790.2494L383.29913,787.8585C383.56738,787.7323,383.8405,787.6168,384.11786,787.5121L384.11786,787.5121L389.37415,785.5276C389.6513,785.42285,389.93256,785.3291,390.21716,785.24646L390.21716,785.24646L395.6129,783.6803C395.89764,783.59766,396.18555,783.52625,396.4759,783.4663L396.4759,783.4663L401.97784,782.3285C402.268,782.26855,402.56042,782.22,402.85437,782.18286L402.85437,782.18286L408.4287,781.4801C408.72278,781.443,409.01807,781.4176,409.31415,781.40356L409.31415,781.40356L414.9264,781.1404C415.22253,781.12646,415.5191,781.1244,415.81543,781.13367L415.81543,781.13367L421.43103,781.31177C421.72723,781.32104,422.0229,781.34204,422.31744,781.37463L422.31744,781.37463L427.9018,781.9927C428.19635,782.02527,428.4895,782.06934,428.78064,782.1251L428.78064,782.1251L434.29926,783.1792C434.59045,783.235,434.87933,783.3019,435.16528,783.3801L435.16528,783.3801L440.58417,784.86414C440.87,784.9424,441.15265,785.03174,441.4314,785.1323L441.4314,785.1323L446.71716,787.03687C446.99603,787.1373,447.2708,787.24866,447.54095,787.3707L447.54095,787.3707L452.661,789.6842C452.93115,789.80615,453.19635,789.93896,453.45612,790.0818L453.45612,790.0818L458.37885,792.7898C458.63843,792.9326,458.89233,793.0856,459.13995,793.2483L459.13995,793.2483L463.83502,796.3341C464.08276,796.49695,464.32404,796.66956,464.55823,796.8513L464.55823,796.8513L468.99677,800.296C469.23083,800.4778,469.4577,800.66846,469.67682,800.86804L469.67682,800.86804L473.83142,804.65027C474.0506,804.84985,474.2619,805.058,474.46478,805.2742L474.46478,805.2742L478.3098,809.371C478.51263,809.58704,478.7068,809.8109,478.89203,810.04224L478.89203,810.04224L482.40375,814.42786C482.589,814.6592,482.76508,814.8978,482.93158,815.14294L482.93158,815.14294L486.08838,819.7905C486.25488,820.03577,486.4118,820.2875,486.5586,820.54504L486.5586,820.54504L489.341,825.42615C489.4878,825.6836,489.6244,825.9469,489.75055,826.21497L489.75055,826.21497L492.14136,831.2993C492.26752,831.5676,492.38312,831.8406,492.4878,832.11804L492.4878,832.11804L494.4723,837.37415C494.57697,837.65137,494.67065,837.9326,494.7533,838.2173L494.7533,838.2173L496.3194,843.61304C496.40204,843.8977,496.47345,844.18555,496.5335,844.4758L496.5335,844.4758L497.6714,849.9778C497.73138,850.26794,497.77997,850.5604,497.81702,850.8544L497.81702,850.8544L498.51978,856.4286C498.55682,856.7228,498.58234,857.0182,498.59625,857.31433L498.59625,857.31433L498.85944,862.9265C498.8733,863.22266,498.87555,863.51917,498.86615,863.8153L498.86615,863.8153L498.68823,869.431C498.6789,869.7272,498.65778,870.0232,498.62518,870.31775L498.62518,870.31775L498.00714,875.90186C497.97455,876.19653,497.93042,876.4896,497.87482,876.78076L497.87482,876.78076L496.82056,882.29944C496.76495,882.5906,496.69794,882.8794,496.61963,883.1653L496.61963,883.1653L495.13568,888.584C495.05737,888.8699,494.9679,889.1526,494.8675,889.4314L494.8675,889.4314L492.9629,894.71716C492.86243,894.996,492.75104,895.2709,492.62897,895.5409L492.62897,895.5409L490.31555,900.661C487.7414,906.35815,481.03613,908.8898,475.33893,906.3157C469.64178,903.7416,467.1101,897.03625,469.68433,891.339L469.68433,891.339L471.99774,886.219L471.66382,887.0427L473.56836,881.75696L473.30017,882.60425L474.78412,877.18555L474.5832,878.0513L475.63745,872.5326L475.50513,873.4114L476.1231,867.82715L476.06012,868.71387L476.23804,863.09814L476.2448,863.98694L475.98163,858.37476L476.0581,859.2604L475.35535,853.68616L475.50104,854.56274L474.36316,849.0608L474.57727,849.9236L473.01117,844.52783L473.2921,845.37085L471.30762,840.1146L471.654,840.93335L469.26312,835.849L469.67267,836.63794L466.8902,831.7567L467.3604,832.5111L464.2036,827.8635L464.7315,828.5786L461.2198,824.1929L461.802,824.86414L457.95703,820.76746L458.59045,821.39136L454.4359,817.609L455.11597,818.1809L450.6775,814.7361L451.40063,815.2533L446.70557,812.1675L447.46667,812.626L442.54395,809.91797L443.33905,810.31555L438.21906,808.0022L439.04285,808.33606L433.75708,806.4315L434.6043,806.6997L429.18536,805.2157L430.0514,805.4166L424.53278,804.3624L425.41168,804.4949L419.82733,803.87683L420.71368,803.9398L415.09808,803.76184L415.98718,803.7551L410.37494,804.0183L411.26038,803.9419L405.68604,804.64465L406.56256,804.499L401.0606,805.6367L401.92358,805.4226L396.52783,806.9888L397.37085,806.70776L392.11462,808.69226L392.93335,808.3458L387.849,810.7368L388.63788,810.3273L383.75684,813.10974L384.511,812.63965L379.86328,815.7964L380.5785,815.26843L376.1928,818.78015L376.86414,818.1979L372.76746,822.04285L373.39136,821.4094L369.60895,825.5641L370.18103,824.8839L366.73627,829.3225L367.25323,828.5995L364.16736,833.2947L364.6261,832.5331L361.9182,837.4558C358.9051,842.9336,352.0219,844.9315,346.5442,841.91833C341.06653,838.90515,339.0686,832.0221,342.08173,826.5443 Z"/> </g> <g style="fill:rgb(0,0,0); fill-opacity:1.0; stroke-linejoin: miter"> <path d="M244.68993,799.53186L244.68993,799.53186L244.90865,794.2468C244.92152,793.9352,244.94734,793.62427,244.98592,793.3148L244.98592,793.3148L245.64021,788.0658C245.67882,787.7562,245.73018,787.44824,245.7942,787.14294L245.7942,787.14294L246.87968,781.96606C246.94371,781.66064,247.02034,781.35803,247.10939,781.05896L247.10939,781.05896L248.61873,775.98926C248.70772,775.6902,248.80907,775.395,248.92247,775.1044L248.92247,775.1044L250.84523,770.17676C250.95863,769.886,251.08403,769.60034,251.22105,769.32007L251.22105,769.32007L253.54424,764.5679C253.68123,764.2876,253.82982,764.01306,253.98952,763.745L253.98952,763.745L256.6972,759.2009C256.85693,758.93286,257.0276,758.67163,257.20892,758.4177L257.20892,758.4177L260.28253,754.1128C260.4638,753.8589,260.65558,753.61255,260.85724,753.3744L260.85724,753.3744L264.27588,749.338C264.47754,749.1001,264.68896,748.87036,264.90955,748.64966L264.90955,748.64966L268.64984,744.9094C268.87048,744.68884,269.1001,744.47754,269.33813,744.2759L269.33813,744.2759L273.3745,740.8572C273.61255,740.65564,273.85876,740.4641,274.11267,740.2827L274.11267,740.2827L278.41754,737.209C278.6715,737.0277,278.93292,736.8568,279.20105,736.697L279.20105,736.697L283.74512,733.9895C284.01306,733.82983,284.28754,733.68115,284.56775,733.5442L284.56775,733.5442L289.3199,731.22107C289.60022,731.084,289.88617,730.9586,290.17682,730.8452L290.17682,730.8452L295.10455,728.92236C295.3952,728.80896,295.69043,728.70764,295.98944,728.61865L295.98944,728.61865L301.05914,727.1094C301.3581,727.0204,301.66064,726.9437,301.966,726.87976L301.966,726.87976L307.143,725.7942C307.4483,725.7302,307.7561,725.6787,308.06567,725.64014L308.06567,725.64014L313.31464,724.98584C313.62433,724.94727,313.93542,724.9215,314.24725,724.90857L314.24725,724.90857L319.5323,724.68994C319.83612,724.6775,320.14032,724.6771,320.44415,724.6891L320.44415,724.6891L325.4655,724.8862C325.76184,724.89795,326.05768,724.92114,326.35217,724.95605L326.35217,724.95605L331.3426,725.5469C331.63672,725.58167,331.92944,725.6279,332.2199,725.6858L332.2199,725.6858L337.14856,726.666C337.4394,726.7239,337.72778,726.7931,338.01312,726.87354L338.01312,726.87354L342.84973,728.2377C343.13507,728.3181,343.41705,728.40967,343.6952,728.5123L343.6952,728.5123L348.40985,730.2517C348.68787,730.35425,348.96173,730.4678,349.2309,730.5918L349.2309,730.5918L353.79456,732.6958C354.06372,732.81995,354.32782,732.95447,354.5863,733.0991L354.5863,733.0991L358.97083,735.55457C359.22955,735.69946,359.48242,735.8545,359.72894,736.01917L359.72894,736.01917L363.9073,738.81104C364.15363,738.9757,364.39343,739.1498,364.62616,739.33325L364.62616,739.33325L368.5725,742.44434C368.8053,742.6278,369.03076,742.82043,369.2484,743.0216L369.2484,743.0216L372.9386,746.4326C373.1563,746.6338,373.36597,746.8436,373.5672,747.0613L373.5672,747.0613L376.9784,750.7516C377.1795,750.96924,377.372,751.1946,377.55554,751.42725L377.55554,751.42725L380.66663,755.37366C380.85016,755.60645,381.02448,755.8463,381.18915,756.0929L381.18915,756.0929L383.98108,760.27124C384.1457,760.5177,384.3006,760.7706,384.44537,761.02905L384.44537,761.02905L386.90082,765.4136C387.04565,765.67224,387.18024,765.9363,387.30432,766.20544L387.30432,766.20544L389.4082,770.76904C389.5323,771.0382,389.6458,771.31226,389.7484,771.59033L389.7484,771.59033L391.48773,776.30505C391.59033,776.5831,391.68195,776.8651,391.7624,777.1504L391.7624,777.1504L393.1264,781.98694C393.20685,782.2722,393.27606,782.56055,393.33392,782.8513L393.33392,782.8513L394.31427,787.7799C394.37213,788.0707,394.41852,788.3634,394.4533,788.6577L394.4533,788.6577L395.044,793.6482C395.07886,793.9426,395.10205,794.23804,395.1137,794.5343L395.1137,794.5343L395.31097,799.55566C395.55646,805.8025,390.69135,811.0657,384.4444,811.31104C378.1975,811.5565,372.9344,806.6913,372.68896,800.44434L372.68896,800.44434L372.4917,795.4231L372.5614,796.3092L371.9707,791.3187L372.10974,792.19653L371.1294,787.2678L371.3369,788.1321L369.97284,783.29553L370.2475,784.14075L368.50818,779.426L368.8484,780.24744L366.7445,775.68384L367.148,776.4757L364.6925,772.0912L365.15686,772.849L362.365,768.67053L362.8875,769.3898L359.77643,765.4435L360.35358,766.11914L356.94238,762.42896L357.57098,763.0576L353.88086,759.6465L354.55676,760.22375L350.61035,757.1127L351.32922,757.6349L347.15088,754.843L347.909,755.3075L343.52448,752.8522L344.31622,753.2556L339.7525,751.15173L340.5736,751.4918L335.85895,749.75244L336.7044,750.0271L331.86786,748.6631L332.73236,748.8706L327.8037,747.8904L328.68103,748.0294L323.69055,747.4386L324.5772,747.5084L319.55585,747.31116L320.4677,747.3102L315.18262,747.5287L316.11523,747.45154L310.86627,748.10583L311.78894,747.9519L306.61194,749.03735L307.5188,748.80774L302.44916,750.3169L303.33405,750.0132L298.4063,751.9359L299.26324,751.5602L294.5111,753.8833L295.33374,753.4381L290.78973,756.14575L291.57324,755.6338L287.2683,758.7075L288.00647,758.13306L283.97003,761.55176L284.65833,760.9182L280.91797,764.65845L281.55164,763.9701L278.133,768.0065L278.7077,767.26807L275.6341,771.573L276.14575,770.7898L273.43805,775.33386L273.88336,774.511L271.56018,779.2632L271.93604,778.4065L270.01324,783.3341L270.31702,782.4492L268.80768,787.5189L269.03735,786.61194L267.95184,791.7888L268.1059,790.86597L267.4516,796.1151L267.5288,795.1831L267.31006,800.46814C267.05157,806.7146,261.77826,811.5686,255.53188,811.31006C249.2855,811.0515,244.43138,805.7782,244.68993,799.53186 Z"/> </g> <g style="fill:rgb(0,0,0); fill-opacity:1.0; stroke-linejoin: miter"> <path d="M254.71982,845.21466L254.71982,845.21466L257.38763,843.2452C257.48657,843.1722,257.5882,843.1027,257.69226,843.0373L257.69226,843.0373L260.49844,841.2707C260.60248,841.20514,260.70892,841.1436,260.81754,841.086L260.81754,841.086L263.7468,839.5317C263.8555,839.47406,263.96634,839.42035,264.079,839.3709L264.079,839.3709L267.1153,838.0379C267.2279,837.98846,267.3423,837.9432,267.45825,837.9023L267.45825,837.9023L270.5849,836.79767C270.70087,836.75665,270.8183,836.72003,270.93698,836.6878L270.93698,836.6878L274.1368,835.81757C274.2555,835.78534,274.3753,835.7575,274.49603,835.73395L274.49603,835.73395L277.7515,835.1031C277.87228,835.07965,277.99393,835.0607,278.11612,835.0463L278.11612,835.0463L281.40933,834.65826C281.53146,834.64386,281.65408,834.634,281.77695,834.6286L281.77695,834.6286L285.08987,834.48517C285.21274,834.4798,285.33585,834.4792,285.45877,834.483L285.45877,834.483L288.77322,834.58527C288.89618,834.58905,289.01892,834.59735,289.14124,834.61017L289.14124,834.61017L292.43903,834.9576C292.5614,834.9704,292.68326,834.98785,292.80435,835.0098L292.80435,835.0098L296.06735,835.6004C296.18835,835.6224,296.30847,835.6486,296.42752,835.6795L296.42752,835.6795L299.63785,836.5098C299.75696,836.5407,299.8749,836.57587,299.99136,836.6154L299.99136,836.6154L303.13147,837.6812C303.24274,837.71893,303.35263,837.7607,303.46094,837.8062L303.46094,837.8062L306.24377,838.97614C306.347,839.0195,306.4487,839.06647,306.5488,839.11664L306.5488,839.11664L309.24643,840.4715C309.3465,840.5218,309.4448,840.5754,309.54126,840.63226L309.54126,840.63226L312.14148,842.16595C312.2379,842.22284,312.3324,842.283,312.42477,842.34625L312.42477,842.34625L314.91568,844.05145C315.00806,844.1147,315.09827,844.1812,315.1862,844.2504L315.1862,844.2504L317.55652,846.1198C317.64447,846.18915,317.73004,846.2614,317.81314,846.3366L317.81314,846.3366L320.0521,848.3615C320.1351,848.4366,320.2156,848.51434,320.2934,848.5949L320.2934,848.5949L322.39078,850.7659C322.4686,850.8465,322.54364,850.92975,322.61584,851.0153L322.61584,851.0153L324.56213,853.32294C324.6343,853.4085,324.7036,853.4965,324.76987,853.58673L324.76987,853.58673L326.5562,856.0203C326.62247,856.11053,326.68564,856.20294,326.74567,856.29755L326.74567,856.29755L328.36395,858.8459C328.42395,858.94037,328.48077,859.0368,328.5343,859.1352L328.5343,859.1352L329.97717,861.7867C330.03067,861.8851,330.08087,861.9853,330.12766,862.0871L330.12766,862.0871L331.38852,864.83C331.4353,864.9317,331.4786,865.035,331.5184,865.1396L331.5184,865.1396L332.59155,867.96124C332.63135,868.06586,332.66763,868.1718,332.7003,868.279L332.7003,868.279L333.5808,871.16644C334.38306,873.7972,332.9008,876.58014,330.27002,877.3824C327.63925,878.18463,324.85626,876.7022,324.05402,874.0715L324.05402,874.0715L323.1735,871.18414L323.28226,871.5019L322.2091,868.68024L322.339,868.9898L321.07812,866.247L321.2286,866.5474L319.78577,863.8958L319.95612,864.1851L318.33783,861.6368L318.52728,861.914L316.74094,859.4805L316.94867,859.7443L315.0024,857.4367L315.22748,857.6861L313.1301,855.51495L313.37137,855.74835L311.13242,853.72345L311.38904,853.94025L309.0187,852.071L309.2892,852.26996L306.7983,850.56464L307.0816,850.74493L304.48138,849.21124L304.77618,849.372L302.07855,848.01715L302.38358,848.15765L299.60077,846.9876L299.93027,847.11273L296.7902,846.04694L297.1437,846.1524L293.93338,845.32196L294.29352,845.40106L291.0305,844.8105L291.3958,844.86273L288.09802,844.51544L288.46603,844.54047L285.15158,844.4382L285.52048,844.43585L282.20758,844.5793L282.5752,844.5496L279.28198,844.9378L279.6466,844.88104L276.39114,845.512L276.7504,845.4284L273.55057,846.29865L273.90265,846.18866L270.77603,847.2933L271.11902,847.15765L268.08273,848.49066L268.41492,848.3298L265.48566,849.884L265.80475,849.6994L262.99857,851.466L263.3032,851.2581L260.63538,853.2276C258.4227,854.86115,255.30469,854.39166,253.67116,852.179C252.03764,849.9664,252.50714,846.8482,254.71982,845.21466 Z"/> </g> <g style="fill:rgb(0,0,0); fill-opacity:1.0; stroke-linejoin: miter"> <path d="M407.8952,823.1325L407.8952,823.1325L410.35306,822.17523C410.4679,822.13055,410.58435,822.09015,410.70218,822.054L410.70218,822.054L413.2242,821.2818C413.34186,821.24567,413.4608,821.2142,413.58078,821.1868L413.58078,821.1868L416.1531,820.60345C416.27325,820.5761,416.39435,820.5534,416.51614,820.5352L416.51614,820.5352L419.1246,820.1441C419.24628,820.1258,419.3686,820.112,419.49127,820.10284L419.49127,820.10284L422.12158,819.90594C422.2444,819.8968,422.3675,819.89215,422.4907,819.892L422.4907,819.892L425.12836,819.89056C425.25153,819.89044,425.37466,819.8951,425.4975,819.9041L425.4975,819.9041L428.128,820.0982C428.25076,820.10724,428.37314,820.1208,428.49487,820.139L428.49487,820.139L431.1038,820.5274C431.22552,820.5455,431.34656,820.56805,431.4666,820.5953L431.4666,820.5953L434.03958,821.17584C434.15967,821.20294,434.27878,821.23444,434.39658,821.2703L434.39658,821.2703L436.91943,822.04C437.03717,822.076,437.15353,822.1164,437.26834,822.1608L437.26834,822.1608L439.7272,823.1153C439.842,823.15985,439.95505,823.20856,440.0662,823.26154L440.0662,823.26154L442.44763,824.39557C442.5588,824.44855,442.668,824.50543,442.77496,824.5666L442.77496,824.5666L445.0658,825.87396C445.1727,825.9349,445.27728,825.99994,445.3794,826.0688L445.3794,826.0688L447.5671,827.5422C447.6673,827.6098,447.76498,827.68085,447.86002,827.7553L447.86002,827.7553L449.85626,829.3223C449.94946,829.39545,450.03998,829.47186,450.12772,829.5516L450.12772,829.5516L452.00717,831.2569C452.09485,831.33636,452.17966,831.4191,452.26147,831.5047L452.26147,831.5047L454.01456,833.33966C454.09644,833.42535,454.17523,833.514,454.25082,833.6053L454.25082,833.6053L455.86862,835.5606C455.9441,835.6518,456.0163,835.7458,456.08508,835.8421L456.08508,835.8421L457.55942,837.9078C457.62823,838.0042,457.69354,838.10284,457.7553,838.20404L457.7553,838.20404L459.0786,840.36945C459.1404,840.4705,459.19855,840.5738,459.253,840.67914L459.253,840.67914L460.41852,842.9334C460.4729,843.03876,460.52353,843.1457,460.5703,843.2546L460.5703,843.2546L461.57217,845.58624C461.61893,845.695,461.6618,845.80536,461.70065,845.9173L461.70065,845.9173L462.53375,848.3144C462.5726,848.42633,462.6075,848.5396,462.6383,848.6539L462.6383,848.6539L463.2984,851.10443C463.32922,851.2188,463.35593,851.3343,463.3785,851.4506L463.3785,851.4506L463.8622,853.94196C463.88477,854.0583,463.90323,854.17523,463.91745,854.2928L463.91745,854.2928L464.2223,856.8122C464.23654,856.9299,464.24655,857.0479,464.25235,857.1662L464.25235,857.1662L464.37683,859.701C464.5117,862.44806,462.3941,864.78424,459.64706,864.9191C456.90002,865.054,454.56378,862.93646,454.4289,860.1894L454.4289,860.1894L454.30444,857.6546L454.3345,858.0086L454.02966,855.4892L454.0849,855.84015L453.6012,853.3488L453.6813,853.6951L453.0212,851.2447L453.1258,851.58417L452.29272,849.18695L452.42123,849.5181L451.41937,847.18646L451.57117,847.5076L450.4056,845.25323L450.58,845.5629L449.2567,843.3975L449.4526,843.6938L447.97827,841.62823L448.19476,841.9097L446.57693,839.9543L446.8132,840.2199L445.06012,838.3851L445.31442,838.633L443.435,836.9277L443.70648,837.1569L441.71024,835.5899L442.00314,835.80304L439.81543,834.3295L440.12903,834.52435L437.8382,833.217L438.16553,833.388L435.7841,832.25397L436.12308,832.4002L433.6642,831.44574L434.01312,831.5666L431.49026,830.79694L431.84726,830.8914L429.2743,830.31085L429.63715,830.3787L427.02823,829.9903L427.3951,830.03107L424.76462,829.837L425.13376,829.8505L422.4961,829.852L422.8652,829.8381L420.23492,830.035L420.60162,829.9937L417.99313,830.38495L418.3562,830.3167L415.78387,830.9001L416.1404,830.80524L413.61838,831.57745L413.96747,831.45636L411.50964,832.4135C408.94678,833.41156,406.0601,832.1431,405.06198,829.58026C404.06387,827.0174,405.33237,824.13055,407.8952,823.1325 Z"/> </g> <g style="fill:rgb(0,0,0); fill-opacity:1.0; stroke-linejoin: miter"> <path d="M490.16122,925.36005L490.16122,925.36005L492.0331,924.81134C492.14606,924.77826,492.26013,924.7491,492.37512,924.72406L492.37512,924.72406L494.28122,924.3094C494.39636,924.28436,494.5123,924.26337,494.62894,924.24664L494.62894,924.24664L496.5596,923.9681C496.67606,923.95135,496.79306,923.93854,496.9104,923.9301L496.9104,923.9301L498.85602,923.789C498.97336,923.7806,499.09094,923.7762,499.2086,923.77594L499.2086,923.77594L501.15924,923.773C501.277,923.77277,501.39468,923.7768,501.51215,923.785L501.51215,923.785L503.45813,923.9202C503.57553,923.9285,503.69263,923.94073,503.8092,923.9572L503.8092,923.9572L505.74075,924.2299C505.85727,924.2464,505.97318,924.267,506.08826,924.2917L506.08826,924.2917L507.99557,924.7005C508.11066,924.72516,508.2248,924.75397,508.33783,924.7867L508.33783,924.7867L510.2114,925.32965C510.32446,925.3625,510.43628,925.39923,510.5467,925.44L510.5467,925.44L512.37714,926.1142C512.48755,926.15497,512.59656,926.1994,512.70386,926.24786L512.70386,926.24786L514.48193,927.0501C514.5891,927.09845,514.6946,927.1507,514.7981,927.2066L514.7981,927.2066L516.51483,928.13275C516.61847,928.18866,516.7202,928.2482,516.81964,928.31134L516.81964,928.31134L518.46655,929.3569C518.56586,929.42,518.6629,929.4865,518.7575,929.55646L518.7575,929.55646L520.3262,930.7159C520.42084,930.78595,520.51294,930.8593,520.60236,930.9357L520.60236,930.9357L522.08496,932.2034C522.17145,932.2774,522.2554,932.3543,522.3367,932.43414L522.3367,932.43414L523.6379,933.7111C523.71643,933.78815,523.79236,933.86774,523.86554,933.94977L523.86554,933.94977L525.0794,935.3101C525.1527,935.3923,525.22327,935.47687,525.29095,935.56366L525.29095,935.56366L526.41205,937.0015C526.4796,937.0882,526.5444,937.1772,526.6061,937.2681L526.6061,937.2681L527.6295,938.7769C527.6913,938.8681,527.75,938.961,527.8056,939.05597L527.8056,939.05597L528.72687,940.6292C528.7825,940.7242,528.83496,940.82086,528.88416,940.9194L528.88416,940.9194L529.6992,942.55023C529.7484,942.6486,529.7943,942.74884,529.83685,942.8503L529.83685,942.8503L530.5422,944.53156C530.5847,944.633,530.6239,944.73553,530.6596,944.83966L530.6596,944.83966L531.25214,946.564C531.28784,946.668,531.3202,946.77325,531.34894,946.87946L531.34894,946.87946L531.8259,948.6392C531.8547,948.7454,531.88,948.8525,531.9017,948.96027L531.9017,948.96027L532.26105,950.7476C532.2827,950.8555,532.30084,950.96405,532.31537,951.07306L532.31537,951.07306L532.55566,952.88043C532.9181,955.60675,531.0018,958.1108,528.27545,958.4733C525.5491,958.83575,523.04504,956.9194,522.6826,954.19305L522.6826,954.19305L522.4423,952.3857L522.49664,952.7111L522.1372,950.92377L522.21295,951.24493L521.73596,949.48517L521.83276,949.8006L521.24023,948.07623L521.3577,948.38434L520.6524,946.70306L520.79004,947.003L519.975,945.37213L520.1322,945.6623L519.2109,944.08905L519.38696,944.368L518.36346,942.8592L518.5575,943.1258L517.4364,941.6879L517.6479,941.94135L516.4341,940.581L516.66174,940.81964L515.3605,939.54254L515.6122,939.77325L514.1296,938.50543L514.40576,938.7253L512.83716,937.56573L513.1281,937.7653L511.48126,936.7198L511.78613,936.8984L510.06937,935.9722L510.38556,936.1287L508.60748,935.3265L508.9342,935.46L507.1038,934.7857L507.43912,934.89606L505.56555,934.3531L505.9078,934.4393L504.0005,934.03033L504.348,934.0921L502.41644,933.8193L502.76752,933.85614L500.82156,933.7209L501.17447,933.733L499.22382,933.7359L499.5764,933.72284L497.63083,933.86395L497.98163,933.82587L496.051,934.10443L496.3987,934.0417L494.4926,934.45636L494.8346,934.3691L492.9627,934.9178C490.3234,935.69135,487.55667,934.179,486.78308,931.5396C486.00946,928.9003,487.5219,926.1336,490.16122,925.36005 Z"/> </g> <g style="fill:rgb(0,0,0); fill-opacity:1.0; stroke-linejoin: miter"> <path d="M380.3336,917.81586L380.3336,917.81586L382.15146,916.97906C382.2667,916.92596,382.38397,916.8774,382.5029,916.8333L382.5029,916.8333L384.37943,916.13776C384.49826,916.0937,384.61874,916.05414,384.7406,916.0192L384.7406,916.0192L386.66467,915.4688C386.78653,915.4339,386.9097,915.40375,387.03384,915.37836L387.03384,915.37836L388.99432,914.97626C389.11853,914.95074,389.24365,914.93,389.36942,914.914L389.36942,914.914L391.35486,914.66266C391.4806,914.6468,391.60693,914.6358,391.73352,914.62946L391.73352,914.62946L393.73233,914.53033C393.85892,914.524,393.98575,914.5224,394.11246,914.52594L394.11246,914.52594L396.11304,914.5794C396.23975,914.5828,396.36624,914.591,396.4923,914.60406L396.4923,914.60406L398.48294,914.8101C398.6091,914.8232,398.73474,914.841,398.85953,914.8637L398.85953,914.8637L400.82864,915.221C400.9533,915.2436,401.07703,915.27106,401.1996,915.30304L401.1996,915.30304L403.13574,915.8095C403.2584,915.8415,403.37976,915.87836,403.4996,915.91974L403.4996,915.91974L405.39148,916.5723C405.5113,916.6137,405.6295,916.6595,405.74582,916.7099L405.74582,916.7099L407.58243,917.50494C407.69876,917.55524,407.8131,917.61005,407.92526,917.6691L407.92526,917.6691L409.69586,918.60187C409.80798,918.66095,409.9178,918.7243,410.0251,918.7917L410.0251,918.7917L411.71936,919.85675C411.82672,919.92426,411.9315,919.9958,412.0334,920.07135L412.0334,920.07135L413.64148,921.26263C413.7386,921.33453,413.833,921.41,413.9246,921.48883L413.9246,921.48883L415.30164,922.6734C415.38885,922.74835,415.47348,922.8265,415.5553,922.9073L415.5553,922.9073L416.84702,924.1844C416.92886,924.2653,417.00784,924.34894,417.0839,924.43536L417.0839,924.43536L418.28406,925.79877C418.36002,925.8852,418.433,925.97406,418.50284,926.06537L418.50284,926.06537L419.60574,927.5087C419.67563,927.60016,419.74234,927.6939,419.80573,927.79L419.80573,927.79L420.80603,929.3062C420.86935,929.4023,420.92932,929.5003,420.98584,929.6005L420.98584,929.6005L421.87878,931.1822C421.93533,931.2824,421.9884,931.3846,422.03793,931.48846L422.03793,931.48846L422.81918,933.12823C422.86868,933.2321,422.91455,933.3377,422.95673,933.44476L422.95673,933.44476L423.62256,935.1347C423.66473,935.24176,423.70322,935.3503,423.73785,935.4599L423.73785,935.4599L424.2851,937.1921C424.31973,937.3017,424.3506,937.41254,424.37756,937.52435L424.37756,937.52435L424.80356,939.2901C424.83054,939.4018,424.85364,939.5146,424.8728,939.6281L424.8728,939.6281L425.17554,941.4191C425.1947,941.53265,425.20993,941.64655,425.22122,941.76105L425.22122,941.76105L425.3992,943.5688C425.4105,943.6833,425.4178,943.79816,425.42108,943.91315L425.42108,943.91315L425.47348,945.7287C425.47678,945.8438,425.47614,945.9589,425.47147,946.0738L425.47147,946.0738L425.398,947.88873C425.28677,950.6369,422.96884,952.7745,420.22073,952.66327C417.47263,952.55206,415.33502,950.23395,415.44626,947.4859L415.44626,947.4859L415.51974,945.67084L415.51773,946.0159L415.46536,944.2004L415.48724,944.54474L415.30927,942.737L415.35495,943.0789L415.05222,941.2879L415.12146,941.6259L414.69543,939.8603L414.7879,940.19257L414.24066,938.4605L414.35596,938.7857L413.69012,937.09564L413.82764,937.4122L413.04636,935.7724L413.2055,936.07855L412.31256,934.4969L412.4924,934.7911L411.49207,933.27484L411.69205,933.5562L410.58914,932.113L410.8079,932.3796L409.60773,931.01605L409.84464,931.26715L408.55292,929.99005L408.8066,930.22406L407.42957,929.0396L407.71268,929.2658L406.10458,928.0745L406.4186,928.289L404.72433,927.22394L405.05356,927.41376L403.28296,926.481L403.6258,926.6452L401.78918,925.85016L402.14355,925.9876L400.25168,925.335L400.6155,925.44525L398.67935,924.9389L399.0503,925.02094L397.08118,924.66364L397.45776,924.7172L395.46713,924.51117L395.84637,924.5358L393.8458,924.48224L394.22592,924.47784L392.22714,924.5771L392.6058,924.5439L390.6204,924.7952L390.99548,924.733L389.035,925.1351L389.40417,925.0446L387.4801,925.59515L387.84125,925.4766L385.96475,926.1722L386.3162,926.0264L384.4983,926.86334C381.99994,928.01337,379.04233,926.92035,377.89224,924.42206C376.7422,921.92365,377.8352,918.966,380.3336,917.81586 Z"/> </g> <g style="fill:rgb(0,0,0); fill-opacity:1.0; stroke-linejoin: miter"> <path d="M242.1599,934.7475L242.1599,934.7475L242.93317,933.82086C242.99576,933.7459,243.06053,933.6728,243.12743,933.6016L243.12743,933.6016L243.95377,932.7221C244.02046,932.6512,244.08922,932.5821,244.15996,932.5152L244.15996,932.5152L245.03654,931.6856C245.10745,931.61847,245.1803,931.55365,245.25504,931.4908L245.25504,931.4908L246.1788,930.7142C246.25348,930.6514,246.32999,930.59064,246.40822,930.5324L246.40822,930.5324L247.37598,929.81146C247.45412,929.75323,247.53395,929.69745,247.61537,929.64386L247.61537,929.64386L248.62383,928.9809C248.70547,928.9272,248.78864,928.8759,248.8733,928.8271L248.8733,928.8271L249.91895,928.2247C250.00328,928.1761,250.08904,928.12994,250.17607,928.08636L250.17607,928.08636L251.2553,927.5462C251.34264,927.5025,251.43121,927.46124,251.521,927.4228L251.521,927.4228L252.63008,926.94696C252.71974,926.9085,252.81053,926.87274,252.90227,926.83966L252.90227,926.83966L254.03737,926.42975C254.13611,926.3942,254.23595,926.3615,254.33673,926.3322L254.33673,926.3322L255.67148,925.9438C255.77927,925.9123,255.88812,925.8847,255.9978,925.86066L255.9978,925.86066L257.3557,925.5632C257.46564,925.5391,257.5763,925.51874,257.68756,925.50226L257.68756,925.50226L259.06253,925.2974C259.17352,925.2808,259.2851,925.2681,259.39697,925.2591L259.39697,925.2591L260.78262,925.14764C260.8946,925.1386,261.0068,925.1335,261.11917,925.132L261.11917,925.132L262.5092,925.11456C262.6217,925.1131,262.73422,925.11554,262.84656,925.12164L262.84656,925.12164L264.2346,925.1983C264.34668,925.2045,264.45847,925.21454,264.56985,925.2282L264.56985,925.2282L265.94952,925.3985C266.06113,925.4123,266.17224,925.4299,266.28265,925.4511L266.28265,925.4511L267.64764,925.7144C267.75793,925.7358,267.8675,925.7607,267.9761,925.78937L267.9761,925.78937L269.32016,926.14435C269.42883,926.17303,269.53653,926.2055,269.64304,926.2414L269.64304,926.2414L270.96002,926.68646C271.0664,926.7225,271.17157,926.762,271.2753,926.8051L271.2753,926.8051L272.55914,927.3382C272.6629,927.3813,272.7652,927.4278,272.8658,927.47784L272.8658,927.47784L274.11066,928.0965C274.21124,928.14655,274.31015,928.1999,274.40714,928.25653L274.40714,928.25653L275.6073,928.95795C275.70438,929.01483,275.79953,929.07465,275.89255,929.1379L275.89255,929.1379L277.04254,929.919C279.3177,931.4644,279.90927,934.5616,278.36392,936.83673C276.81857,939.1119,273.72147,939.70355,271.4463,938.15814L271.4463,938.15814L270.29633,937.377L270.58157,937.55695L269.3814,936.8555L269.6779,937.01556L268.43304,936.3969L268.73972,936.53656L267.45587,936.0035L267.77115,936.122L266.4542,935.67694L266.77707,935.774L265.433,935.4191L265.76147,935.4941L264.39648,935.2308L264.7296,935.2835L263.34995,935.1132L263.6852,935.1431L262.29718,935.06635L262.63455,935.07355L261.24454,935.091L261.5811,935.0755L260.19543,935.18695L260.52988,935.1485L259.15494,935.35333L259.4868,935.2924L258.12885,935.5898L258.45514,935.50665L257.12042,935.8952L257.41977,935.79767L256.2847,936.2076L256.5569,936.10016L255.44781,936.576L255.7135,936.4526L254.63428,936.99286L254.89142,936.85455L253.84578,937.4571L254.09526,937.3034L253.08682,937.9664L253.32622,937.79865L252.35844,938.5197L252.58786,938.33795L251.6641,939.11456L251.88258,938.9196L251.006,939.7492L251.21222,939.5422L250.38588,940.4217L250.58011,940.20233L249.80684,941.12897C248.04463,943.24054,244.90425,943.524,242.79262,941.76166C240.68097,939.99945,240.3977,936.8591,242.1599,934.7475 Z"/> </g> <g style="fill:rgb(0,0,0); fill-opacity:1.0; stroke-linejoin: miter"> <path d="M314.49084,763.66174L314.49084,763.66174L315.84018,762.93164C315.93976,762.8778,316.04117,762.8273,316.1442,762.7804L316.1442,762.7804L317.54013,762.14404C317.64313,762.09705,317.7477,762.0536,317.85367,762.0138L317.85367,762.0138L319.2897,761.474C319.3957,761.4341,319.503,761.39795,319.61145,761.36536L319.61145,761.36536L321.08096,760.9247C321.1894,760.8922,321.29892,760.8634,321.40936,760.8384L321.40936,760.8384L322.9055,760.4989C323.01593,760.4739,323.12723,760.4525,323.2391,760.43494L323.2391,760.43494L324.7549,760.19824C324.86682,760.1808,324.97928,760.1671,325.09213,760.15735L325.09213,760.15735L326.6205,760.0244C326.73328,760.01465,326.84634,760.0088,326.9595,760.0067L326.9595,760.0067L328.49335,759.9783C328.60657,759.9761,328.71988,759.9779,328.83298,759.9835L328.83298,759.9835L330.36526,760.0597C330.4784,760.0653,330.5913,760.0748,330.7038,760.08813L330.7038,760.08813L332.2273,760.2687C332.33975,760.282,332.45175,760.2992,332.56305,760.3202L332.56305,760.3202L334.0707,760.6041C334.1819,760.625,334.29236,760.6498,334.4019,760.6782L334.4019,760.6782L335.8867,761.0642C335.9963,761.09265,336.1049,761.1249,336.2123,761.16077L336.2123,761.16077L337.66736,761.6471C337.77484,761.683,337.8811,761.72253,337.98587,761.76575L337.98587,761.76575L339.40436,762.3501C339.50833,762.39294,339.61084,762.43933,339.71167,762.489L339.71167,762.489L341.07028,763.15967C341.1706,763.2092,341.2692,763.2621,341.36594,763.31836L341.36594,763.31836L342.6763,764.07886C342.773,764.135,342.86786,764.19446,342.9606,764.25696L342.9606,764.25696L344.2168,765.104C344.30948,765.1666,344.40005,765.2322,344.4883,765.3008L344.4883,765.3008L345.68463,766.23047C345.77298,766.2991,345.85898,766.3707,345.9425,766.44507L345.9425,766.44507L347.07352,767.45325C347.15698,767.5277,347.23788,767.60486,347.31616,767.6847L347.31616,767.6847L348.3768,768.7666C348.45505,768.84656,348.53064,768.92896,348.60336,769.0139L348.60336,769.0139L349.58875,770.1648C349.6615,770.24976,349.73138,770.33716,349.79822,770.4269L349.79822,770.4269L350.7039,771.6415C350.77072,771.7311,350.83453,771.823,350.89517,771.9169L350.89517,771.9169L351.71704,773.1897C351.7777,773.2837,351.8352,773.37964,351.8894,773.47754L351.8894,773.47754L352.62372,774.80286C352.6779,774.90063,352.7288,775.0001,352.77628,775.10144L352.77628,775.10144L353.4197,776.47314C353.46722,776.57434,353.5113,776.67725,353.55185,776.7815L353.55185,776.7815L354.1015,778.19336C355.09927,780.75635,353.83038,783.64294,351.2674,784.6406C348.7044,785.6384,345.81787,784.3695,344.82013,781.8065L344.82013,781.8065L344.27048,780.39465L344.40262,780.703L343.75916,779.3313L343.9117,779.6299L343.17743,778.30457L343.3498,778.5924L342.52792,777.3196L342.7192,777.595L341.81357,776.3804L342.02304,776.64246L341.0377,775.4916L341.26425,775.7389L340.20364,774.65686L340.44626,774.8883L339.31525,773.8801L339.5731,774.09485L338.37677,773.16516L338.6483,773.3618L337.3921,772.5148L337.6764,772.6929L336.36603,771.93225L336.66168,772.0908L335.30307,771.42017L335.61038,771.5591L334.1919,770.97473L334.5104,771.0934L333.05536,770.60706L333.38095,770.70374L331.89615,770.31775L332.22733,770.39185L330.7197,770.1079L331.05545,770.1594L329.53195,769.9789L329.87048,770.0073L328.3382,769.93115L328.67786,769.9364L327.14398,769.96484L327.48294,769.947L325.95456,770.07983L326.29178,770.03894L324.77597,770.27563L325.1096,770.2118L323.61346,770.5513L323.9419,770.46484L322.47238,770.9055L322.79413,770.797L321.3581,771.3368L321.67163,771.20654L320.27573,771.8429L320.57974,771.69165L319.23038,772.42175C316.8114,773.73047,313.78943,772.83044,312.48065,770.4115C311.17188,767.99243,312.07184,764.9706,314.49084,763.66174 Z"/> </g> </g> <g id="layer6"> <g style="fill:rgb(0,0,0); fill-opacity:1.0; stroke-linejoin: miter"> <path d="M803.3841,1135.7954L803.3841,1135.7954L801.5388,1142.9844C801.50275,1143.1252,801.4624,1143.2649,801.4181,1143.4033L801.4181,1143.4033L799.1526,1150.4712C799.10815,1150.6096,799.0597,1150.7468,799.00726,1150.8823L799.00726,1150.8823L796.3293,1157.8044C796.2768,1157.94,796.22034,1158.074,796.16,1158.206L796.16,1158.206L793.0788,1164.9585C793.0185,1165.0906,792.9543,1165.2212,792.8862,1165.3496L792.8862,1165.3496L789.41266,1171.9087C789.3446,1172.0371,789.2729,1172.1636,789.1973,1172.2878L789.1973,1172.2878L785.3433,1178.6309C785.2678,1178.7551,785.18866,1178.8772,785.10596,1178.9968L785.10596,1178.9968L780.885,1185.1016C780.8023,1185.2212,780.7162,1185.3384,780.62665,1185.4529L780.62665,1185.4529L776.05334,1191.2986C775.9638,1191.4128,775.87085,1191.5247,775.7747,1191.6338L775.7747,1191.6338L770.865,1197.2C770.76874,1197.3088,770.66943,1197.4153,770.56696,1197.5183L770.56696,1197.5183L765.33777,1202.7854C765.2354,1202.8884,765.1299,1202.9888,765.0216,1203.0857L765.0216,1203.0857L759.4913,1208.0356C759.3816,1208.1338,759.26904,1208.2285,759.15375,1208.3201L759.15375,1208.3201L753.1964,1213.0437C753.0797,1213.136,752.9602,1213.2251,752.8382,1213.3103L752.8382,1213.3103L746.6066,1217.6658C746.48456,1217.7512,746.3599,1217.8328,746.2329,1217.9106L746.2329,1217.9106L739.75,1221.8821C739.62305,1221.96,739.49384,1222.0339,739.36237,1222.1038L739.36237,1222.1038L732.6514,1225.677C732.51996,1225.7468,732.38635,1225.8132,732.25085,1225.875L732.25085,1225.875L725.3366,1229.0366C725.2012,1229.0984,725.06396,1229.1562,724.92505,1229.21L724.92505,1229.21L717.8326,1231.9485C717.6936,1232.0022,717.55304,1232.0518,717.4111,1232.0967L717.4111,1232.0967L710.1663,1234.4021C710.0245,1234.4473,709.8813,1234.4883,709.73694,1234.5247L709.73694,1234.5247L702.36615,1236.3889C702.22174,1236.4253,702.07623,1236.4575,701.92993,1236.4854L701.92993,1236.4854L694.4602,1237.9011C694.3139,1237.929,694.1668,1237.9521,694.0191,1237.971L694.0191,1237.971L686.4774,1238.9336C686.3298,1238.9524,686.18146,1238.9668,686.03284,1238.9768L686.03284,1238.9768L678.4469,1239.4824C674.37,1239.7542,670.8447,1236.6697,670.5729,1232.5928C670.3011,1228.5156,673.38574,1224.9905,677.46265,1224.7188L677.46265,1224.7188L685.04865,1224.2129L684.60406,1224.2561L692.1457,1223.2937L691.7046,1223.3633L699.1743,1221.9475L698.7381,1222.044L706.1089,1220.1797L705.6795,1220.3022L712.92426,1217.9968L712.50275,1218.145L719.5952,1215.4065L719.18365,1215.5798L726.0979,1212.4182L725.6973,1212.6165L732.40826,1209.0432L732.0206,1209.2649L738.5036,1205.2935L738.1299,1205.5383L744.36145,1201.1826L744.00323,1201.4492L749.9606,1196.7256L749.62305,1197.01L755.1534,1192.0603L754.8372,1192.3606L760.0664,1187.0935L759.7684,1187.4119L764.6781,1181.8457L764.3994,1182.1809L768.9727,1176.3354L768.71436,1176.6865L772.9353,1170.5818L772.69794,1170.9475L776.55194,1164.6045L776.3366,1164.9839L779.8101,1158.4248L779.61755,1158.8159L782.69867,1152.0637L782.5294,1152.4656L785.2074,1145.5435L785.0621,1145.9546L787.3276,1138.8867L787.2068,1139.3057L789.052,1132.1167C790.0679,1128.1592,794.0997,1125.7742,798.0574,1126.79C802.015,1127.8062,804.39996,1131.8379,803.3841,1135.7954 Z"/> </g> </g> </svg>